G04 #@! TF.GenerationSoftware,KiCad,Pcbnew,(5.0.0)*
G04 #@! TF.CreationDate,2020-12-02T22:32:57+00:00*
G04 #@! TF.ProjectId,CBR015-0056_QUAD_MAP-CMP_SENSOR_PCB,4342523031352D303035365F51554144,00*
G04 #@! TF.SameCoordinates,Original*
G04 #@! TF.FileFunction,Legend,Top*
G04 #@! TF.FilePolarity,Positive*
%FSLAX46Y46*%
G04 Gerber Fmt 4.6, Leading zero omitted, Abs format (unit mm)*
G04 Created by KiCad (PCBNEW (5.0.0)) date 12/02/20 22:32:57*
%MOMM*%
%LPD*%
G01*
G04 APERTURE LIST*
%ADD10C,0.150000*%
%ADD11C,0.120000*%
%ADD12C,0.200000*%
%ADD13C,0.254000*%
G04 APERTURE END LIST*
D10*
X131521428Y-111888095D02*
X131559523Y-111850000D01*
X131635714Y-111811904D01*
X131826190Y-111811904D01*
X131902380Y-111850000D01*
X131940476Y-111888095D01*
X131978571Y-111964285D01*
X131978571Y-112040476D01*
X131940476Y-112154761D01*
X131483333Y-112611904D01*
X131978571Y-112611904D01*
X136983333Y-113811904D02*
X137478571Y-113811904D01*
X137211904Y-114116666D01*
X137326190Y-114116666D01*
X137402380Y-114154761D01*
X137440476Y-114192857D01*
X137478571Y-114269047D01*
X137478571Y-114459523D01*
X137440476Y-114535714D01*
X137402380Y-114573809D01*
X137326190Y-114611904D01*
X137097619Y-114611904D01*
X137021428Y-114573809D01*
X136983333Y-114535714D01*
X131902380Y-114078571D02*
X131902380Y-114611904D01*
X131711904Y-113773809D02*
X131521428Y-114345238D01*
X132016666Y-114345238D01*
X137478571Y-112611904D02*
X137021428Y-112611904D01*
X137250000Y-112611904D02*
X137250000Y-111811904D01*
X137173809Y-111926190D01*
X137097619Y-112002380D01*
X137021428Y-112040476D01*
X134890476Y-117600000D02*
X134814285Y-117561904D01*
X134700000Y-117561904D01*
X134585714Y-117600000D01*
X134509523Y-117676190D01*
X134471428Y-117752380D01*
X134433333Y-117904761D01*
X134433333Y-118019047D01*
X134471428Y-118171428D01*
X134509523Y-118247619D01*
X134585714Y-118323809D01*
X134700000Y-118361904D01*
X134776190Y-118361904D01*
X134890476Y-118323809D01*
X134928571Y-118285714D01*
X134928571Y-118019047D01*
X134776190Y-118019047D01*
X135271428Y-118361904D02*
X135271428Y-117561904D01*
X135728571Y-118361904D01*
X135728571Y-117561904D01*
X136109523Y-118361904D02*
X136109523Y-117561904D01*
X136300000Y-117561904D01*
X136414285Y-117600000D01*
X136490476Y-117676190D01*
X136528571Y-117752380D01*
X136566666Y-117904761D01*
X136566666Y-118019047D01*
X136528571Y-118171428D01*
X136490476Y-118247619D01*
X136414285Y-118323809D01*
X136300000Y-118361904D01*
X136109523Y-118361904D01*
D11*
G04 #@! TO.C,R1*
X133880000Y-105400000D02*
X133880000Y-106600000D01*
X132120000Y-106600000D02*
X132120000Y-105400000D01*
D12*
G04 #@! TO.C,U2*
X138085000Y-114575000D02*
X138085000Y-101425000D01*
X138085000Y-101425000D02*
X149415000Y-101425000D01*
X149415000Y-101425000D02*
X149415000Y-114575000D01*
X149415000Y-114575000D02*
X138085000Y-114575000D01*
X138965000Y-117575000D02*
X138965000Y-114925000D01*
D11*
G04 #@! TO.C,J2*
X152330000Y-95670000D02*
X152330000Y-97000000D01*
X151000000Y-95670000D02*
X152330000Y-95670000D01*
X149730000Y-95670000D02*
X149730000Y-98330000D01*
X149730000Y-98330000D02*
X142050000Y-98330000D01*
X149730000Y-95670000D02*
X142050000Y-95670000D01*
X142050000Y-95670000D02*
X142050000Y-98330000D01*
G04 #@! TO.C,J3*
X136560000Y-111190000D02*
X135560000Y-111190000D01*
X136560000Y-112250000D02*
X136560000Y-111190000D01*
X134500000Y-113250000D02*
X136560000Y-113250000D01*
X134500000Y-111190000D02*
X134500000Y-113250000D01*
X132440000Y-111190000D02*
X134500000Y-111190000D01*
X132440000Y-117310000D02*
X132440000Y-111190000D01*
X136560000Y-117310000D02*
X132440000Y-117310000D01*
X136560000Y-113250000D02*
X136560000Y-117310000D01*
G04 #@! TO.C,R6*
X132880000Y-100400000D02*
X132880000Y-101600000D01*
X131120000Y-101600000D02*
X131120000Y-100400000D01*
D12*
G04 #@! TO.C,U3*
X149585000Y-114575000D02*
X149585000Y-101425000D01*
X149585000Y-101425000D02*
X160915000Y-101425000D01*
X160915000Y-101425000D02*
X160915000Y-114575000D01*
X160915000Y-114575000D02*
X149585000Y-114575000D01*
X150465000Y-117575000D02*
X150465000Y-114925000D01*
G04 #@! TO.C,U4*
X161965000Y-117575000D02*
X161965000Y-114925000D01*
X172415000Y-114575000D02*
X161085000Y-114575000D01*
X172415000Y-101425000D02*
X172415000Y-114575000D01*
X161085000Y-101425000D02*
X172415000Y-101425000D01*
X161085000Y-114575000D02*
X161085000Y-101425000D01*
G04 #@! TO.C,U5*
X172585000Y-114575000D02*
X172585000Y-101425000D01*
X172585000Y-101425000D02*
X183915000Y-101425000D01*
X183915000Y-101425000D02*
X183915000Y-114575000D01*
X183915000Y-114575000D02*
X172585000Y-114575000D01*
X173465000Y-117575000D02*
X173465000Y-114925000D01*
G04 #@! TO.C,R1*
D10*
X131952380Y-106166666D02*
X131476190Y-106500000D01*
X131952380Y-106738095D02*
X130952380Y-106738095D01*
X130952380Y-106357142D01*
X131000000Y-106261904D01*
X131047619Y-106214285D01*
X131142857Y-106166666D01*
X131285714Y-106166666D01*
X131380952Y-106214285D01*
X131428571Y-106261904D01*
X131476190Y-106357142D01*
X131476190Y-106738095D01*
X131952380Y-105214285D02*
X131952380Y-105785714D01*
X131952380Y-105500000D02*
X130952380Y-105500000D01*
X131095238Y-105595238D01*
X131190476Y-105690476D01*
X131238095Y-105785714D01*
G04 #@! TO.C,U2*
D13*
X143054523Y-108967619D02*
X144082619Y-108967619D01*
X144203571Y-108907142D01*
X144264047Y-108846666D01*
X144324523Y-108725714D01*
X144324523Y-108483809D01*
X144264047Y-108362857D01*
X144203571Y-108302380D01*
X144082619Y-108241904D01*
X143054523Y-108241904D01*
X143175476Y-107697619D02*
X143115000Y-107637142D01*
X143054523Y-107516190D01*
X143054523Y-107213809D01*
X143115000Y-107092857D01*
X143175476Y-107032380D01*
X143296428Y-106971904D01*
X143417380Y-106971904D01*
X143598809Y-107032380D01*
X144324523Y-107758095D01*
X144324523Y-106971904D01*
G04 #@! TO.C,J2*
D10*
X140452380Y-97333333D02*
X141166666Y-97333333D01*
X141309523Y-97380952D01*
X141404761Y-97476190D01*
X141452380Y-97619047D01*
X141452380Y-97714285D01*
X140547619Y-96904761D02*
X140500000Y-96857142D01*
X140452380Y-96761904D01*
X140452380Y-96523809D01*
X140500000Y-96428571D01*
X140547619Y-96380952D01*
X140642857Y-96333333D01*
X140738095Y-96333333D01*
X140880952Y-96380952D01*
X141452380Y-96952380D01*
X141452380Y-96333333D01*
G04 #@! TO.C,J3*
X134166666Y-109642380D02*
X134166666Y-110356666D01*
X134119047Y-110499523D01*
X134023809Y-110594761D01*
X133880952Y-110642380D01*
X133785714Y-110642380D01*
X134547619Y-109642380D02*
X135166666Y-109642380D01*
X134833333Y-110023333D01*
X134976190Y-110023333D01*
X135071428Y-110070952D01*
X135119047Y-110118571D01*
X135166666Y-110213809D01*
X135166666Y-110451904D01*
X135119047Y-110547142D01*
X135071428Y-110594761D01*
X134976190Y-110642380D01*
X134690476Y-110642380D01*
X134595238Y-110594761D01*
X134547619Y-110547142D01*
G04 #@! TO.C,R6*
X134202380Y-101166666D02*
X133726190Y-101500000D01*
X134202380Y-101738095D02*
X133202380Y-101738095D01*
X133202380Y-101357142D01*
X133250000Y-101261904D01*
X133297619Y-101214285D01*
X133392857Y-101166666D01*
X133535714Y-101166666D01*
X133630952Y-101214285D01*
X133678571Y-101261904D01*
X133726190Y-101357142D01*
X133726190Y-101738095D01*
X133202380Y-100309523D02*
X133202380Y-100500000D01*
X133250000Y-100595238D01*
X133297619Y-100642857D01*
X133440476Y-100738095D01*
X133630952Y-100785714D01*
X134011904Y-100785714D01*
X134107142Y-100738095D01*
X134154761Y-100690476D01*
X134202380Y-100595238D01*
X134202380Y-100404761D01*
X134154761Y-100309523D01*
X134107142Y-100261904D01*
X134011904Y-100214285D01*
X133773809Y-100214285D01*
X133678571Y-100261904D01*
X133630952Y-100309523D01*
X133583333Y-100404761D01*
X133583333Y-100595238D01*
X133630952Y-100690476D01*
X133678571Y-100738095D01*
X133773809Y-100785714D01*
G04 #@! TO.C,U3*
D13*
X154554523Y-108967619D02*
X155582619Y-108967619D01*
X155703571Y-108907142D01*
X155764047Y-108846666D01*
X155824523Y-108725714D01*
X155824523Y-108483809D01*
X155764047Y-108362857D01*
X155703571Y-108302380D01*
X155582619Y-108241904D01*
X154554523Y-108241904D01*
X154554523Y-107758095D02*
X154554523Y-106971904D01*
X155038333Y-107395238D01*
X155038333Y-107213809D01*
X155098809Y-107092857D01*
X155159285Y-107032380D01*
X155280238Y-106971904D01*
X155582619Y-106971904D01*
X155703571Y-107032380D01*
X155764047Y-107092857D01*
X155824523Y-107213809D01*
X155824523Y-107576666D01*
X155764047Y-107697619D01*
X155703571Y-107758095D01*
G04 #@! TO.C,U4*
X166054523Y-108967619D02*
X167082619Y-108967619D01*
X167203571Y-108907142D01*
X167264047Y-108846666D01*
X167324523Y-108725714D01*
X167324523Y-108483809D01*
X167264047Y-108362857D01*
X167203571Y-108302380D01*
X167082619Y-108241904D01*
X166054523Y-108241904D01*
X166477857Y-107092857D02*
X167324523Y-107092857D01*
X165994047Y-107395238D02*
X166901190Y-107697619D01*
X166901190Y-106911428D01*
G04 #@! TO.C,U5*
X177554523Y-108967619D02*
X178582619Y-108967619D01*
X178703571Y-108907142D01*
X178764047Y-108846666D01*
X178824523Y-108725714D01*
X178824523Y-108483809D01*
X178764047Y-108362857D01*
X178703571Y-108302380D01*
X178582619Y-108241904D01*
X177554523Y-108241904D01*
X177554523Y-107032380D02*
X177554523Y-107637142D01*
X178159285Y-107697619D01*
X178098809Y-107637142D01*
X178038333Y-107516190D01*
X178038333Y-107213809D01*
X178098809Y-107092857D01*
X178159285Y-107032380D01*
X178280238Y-106971904D01*
X178582619Y-106971904D01*
X178703571Y-107032380D01*
X178764047Y-107092857D01*
X178824523Y-107213809D01*
X178824523Y-107516190D01*
X178764047Y-107637142D01*
X178703571Y-107697619D01*
G04 #@! TD*
M02*
