G04 #@! TF.GenerationSoftware,KiCad,Pcbnew,(5.0.0)*
G04 #@! TF.CreationDate,2020-12-02T22:32:57+00:00*
G04 #@! TF.ProjectId,CBR015-0056_QUAD_MAP-CMP_SENSOR_PCB,4342523031352D303035365F51554144,00*
G04 #@! TF.SameCoordinates,Original*
G04 #@! TF.FileFunction,Copper,L1,Top,Signal*
G04 #@! TF.FilePolarity,Positive*
%FSLAX46Y46*%
G04 Gerber Fmt 4.6, Leading zero omitted, Abs format (unit mm)*
G04 Created by KiCad (PCBNEW (5.0.0)) date 12/02/20 22:32:57*
%MOMM*%
%LPD*%
G01*
G04 APERTURE LIST*
G04 #@! TA.AperFunction,SMDPad,CuDef*
%ADD10R,1.300000X1.500000*%
G04 #@! TD*
G04 #@! TA.AperFunction,SMDPad,CuDef*
%ADD11R,1.250000X2.650000*%
G04 #@! TD*
G04 #@! TA.AperFunction,ComponentPad*
%ADD12O,1.700000X1.700000*%
G04 #@! TD*
G04 #@! TA.AperFunction,ComponentPad*
%ADD13R,1.700000X1.700000*%
G04 #@! TD*
G04 #@! TA.AperFunction,ComponentPad*
%ADD14O,2.000000X1.400000*%
G04 #@! TD*
G04 #@! TA.AperFunction,ComponentPad*
%ADD15C,1.500000*%
G04 #@! TD*
G04 #@! TA.AperFunction,ComponentPad*
%ADD16O,1.350000X1.350000*%
G04 #@! TD*
G04 #@! TA.AperFunction,ComponentPad*
%ADD17R,1.350000X1.350000*%
G04 #@! TD*
G04 #@! TA.AperFunction,ViaPad*
%ADD18C,0.800000*%
G04 #@! TD*
G04 #@! TA.AperFunction,Conductor*
%ADD19C,0.250000*%
G04 #@! TD*
G04 APERTURE END LIST*
D10*
G04 #@! TO.P,R1,2*
G04 #@! TO.N,CMP_SIG*
X133000000Y-107350000D03*
G04 #@! TO.P,R1,1*
G04 #@! TO.N,+5V*
X133000000Y-104650000D03*
G04 #@! TD*
D11*
G04 #@! TO.P,U2,1*
G04 #@! TO.N,Net-(U2-Pad1)*
X139940000Y-116250000D03*
G04 #@! TO.P,U2,2*
G04 #@! TO.N,+5V*
X142480000Y-116250000D03*
G04 #@! TO.P,U2,3*
G04 #@! TO.N,Earth*
X145020000Y-116250000D03*
G04 #@! TO.P,U2,4*
G04 #@! TO.N,MAP1_SIG*
X147560000Y-116250000D03*
G04 #@! TO.P,U2,5*
G04 #@! TO.N,Net-(U2-Pad5)*
X147560000Y-99750000D03*
G04 #@! TO.P,U2,6*
G04 #@! TO.N,Net-(U2-Pad6)*
X145020000Y-99750000D03*
G04 #@! TO.P,U2,7*
G04 #@! TO.N,Net-(U2-Pad7)*
X142480000Y-99750000D03*
G04 #@! TO.P,U2,8*
G04 #@! TO.N,Net-(U2-Pad8)*
X139940000Y-99750000D03*
G04 #@! TD*
D12*
G04 #@! TO.P,J2,4*
G04 #@! TO.N,Earth*
X143380000Y-97000000D03*
G04 #@! TO.P,J2,3*
G04 #@! TO.N,VREF*
X145920000Y-97000000D03*
G04 #@! TO.P,J2,2*
G04 #@! TO.N,CMP_SIG*
X148460000Y-97000000D03*
D13*
G04 #@! TO.P,J2,1*
G04 #@! TO.N,MAP1_SIG*
X151000000Y-97000000D03*
G04 #@! TD*
D14*
G04 #@! TO.P,J1,1*
G04 #@! TO.N,CMP_SIG*
X135750000Y-106500000D03*
G04 #@! TO.P,J1,2*
G04 #@! TO.N,Earth*
X135750000Y-104500000D03*
G04 #@! TO.P,J1,3*
G04 #@! TO.N,+5V*
X135750000Y-102500000D03*
G04 #@! TO.P,J1,4*
G04 #@! TO.N,MAP_SIG*
X135750000Y-100500000D03*
D15*
G04 #@! TO.P,J1,*
G04 #@! TO.N,*
X134250000Y-98450000D03*
G04 #@! TD*
D16*
G04 #@! TO.P,J3,6*
G04 #@! TO.N,+5V*
X133500000Y-116250000D03*
G04 #@! TO.P,J3,5*
G04 #@! TO.N,Earth*
X135500000Y-116250000D03*
G04 #@! TO.P,J3,4*
G04 #@! TO.N,MAP4_SIG*
X133500000Y-114250000D03*
G04 #@! TO.P,J3,3*
G04 #@! TO.N,MAP3_SIG*
X135500000Y-114250000D03*
G04 #@! TO.P,J3,2*
G04 #@! TO.N,MAP2_SIG*
X133500000Y-112250000D03*
D17*
G04 #@! TO.P,J3,1*
G04 #@! TO.N,MAP1_SIG*
X135500000Y-112250000D03*
G04 #@! TD*
D10*
G04 #@! TO.P,R6,1*
G04 #@! TO.N,+5V*
X132000000Y-102350000D03*
G04 #@! TO.P,R6,2*
G04 #@! TO.N,MAP_SIG*
X132000000Y-99650000D03*
G04 #@! TD*
D11*
G04 #@! TO.P,U3,1*
G04 #@! TO.N,Net-(U3-Pad1)*
X151440000Y-116250000D03*
G04 #@! TO.P,U3,2*
G04 #@! TO.N,+5V*
X153980000Y-116250000D03*
G04 #@! TO.P,U3,3*
G04 #@! TO.N,Earth*
X156520000Y-116250000D03*
G04 #@! TO.P,U3,4*
G04 #@! TO.N,MAP2_SIG*
X159060000Y-116250000D03*
G04 #@! TO.P,U3,5*
G04 #@! TO.N,Net-(U3-Pad5)*
X159060000Y-99750000D03*
G04 #@! TO.P,U3,6*
G04 #@! TO.N,Net-(U3-Pad6)*
X156520000Y-99750000D03*
G04 #@! TO.P,U3,7*
G04 #@! TO.N,Net-(U3-Pad7)*
X153980000Y-99750000D03*
G04 #@! TO.P,U3,8*
G04 #@! TO.N,Net-(U3-Pad8)*
X151440000Y-99750000D03*
G04 #@! TD*
G04 #@! TO.P,U4,8*
G04 #@! TO.N,Net-(U4-Pad8)*
X162940000Y-99750000D03*
G04 #@! TO.P,U4,7*
G04 #@! TO.N,Net-(U4-Pad7)*
X165480000Y-99750000D03*
G04 #@! TO.P,U4,6*
G04 #@! TO.N,Net-(U4-Pad6)*
X168020000Y-99750000D03*
G04 #@! TO.P,U4,5*
G04 #@! TO.N,Net-(U4-Pad5)*
X170560000Y-99750000D03*
G04 #@! TO.P,U4,4*
G04 #@! TO.N,MAP3_SIG*
X170560000Y-116250000D03*
G04 #@! TO.P,U4,3*
G04 #@! TO.N,Earth*
X168020000Y-116250000D03*
G04 #@! TO.P,U4,2*
G04 #@! TO.N,+5V*
X165480000Y-116250000D03*
G04 #@! TO.P,U4,1*
G04 #@! TO.N,Net-(U4-Pad1)*
X162940000Y-116250000D03*
G04 #@! TD*
G04 #@! TO.P,U5,1*
G04 #@! TO.N,Net-(U5-Pad1)*
X174440000Y-116250000D03*
G04 #@! TO.P,U5,2*
G04 #@! TO.N,+5V*
X176980000Y-116250000D03*
G04 #@! TO.P,U5,3*
G04 #@! TO.N,Earth*
X179520000Y-116250000D03*
G04 #@! TO.P,U5,4*
G04 #@! TO.N,MAP4_SIG*
X182060000Y-116250000D03*
G04 #@! TO.P,U5,5*
G04 #@! TO.N,Net-(U5-Pad5)*
X182060000Y-99750000D03*
G04 #@! TO.P,U5,6*
G04 #@! TO.N,Net-(U5-Pad6)*
X179520000Y-99750000D03*
G04 #@! TO.P,U5,7*
G04 #@! TO.N,Net-(U5-Pad7)*
X176980000Y-99750000D03*
G04 #@! TO.P,U5,8*
G04 #@! TO.N,Net-(U5-Pad8)*
X174440000Y-99750000D03*
G04 #@! TD*
D18*
G04 #@! TO.N,Earth*
X179500000Y-116250000D03*
X168000000Y-116250000D03*
X156500000Y-116250000D03*
X145000000Y-116250000D03*
X156400000Y-111500000D03*
X157250000Y-106950000D03*
X141250000Y-102250000D03*
X141000000Y-104500000D03*
G04 #@! TO.N,+5V*
X154000000Y-116250000D03*
X142500000Y-116250000D03*
X165500000Y-116250000D03*
X177000000Y-116250000D03*
G04 #@! TO.N,MAP_SIG*
X148500000Y-103600000D03*
X154710000Y-106950000D03*
X154003527Y-102839032D03*
G04 #@! TO.N,CMP_SIG*
X142100000Y-111800000D03*
G04 #@! TO.N,VREF*
X143750000Y-102750000D03*
G04 #@! TO.N,MAP1_SIG*
X147560000Y-116250000D03*
X155980000Y-101675002D03*
X147600000Y-111500000D03*
G04 #@! TO.N,MAP2_SIG*
X159060000Y-116250000D03*
X162500000Y-104750000D03*
X158520000Y-101675002D03*
G04 #@! TO.N,MAP3_SIG*
X170560000Y-116250000D03*
X158520000Y-106950000D03*
X168750000Y-108750000D03*
G04 #@! TO.N,MAP4_SIG*
X182060000Y-116250000D03*
X177750000Y-107000000D03*
X155980000Y-106950000D03*
G04 #@! TD*
D19*
G04 #@! TO.N,Earth*
X156400000Y-111500000D02*
X156400000Y-107800000D01*
X156400000Y-107800000D02*
X157250000Y-106950000D01*
X141250000Y-97927919D02*
X141250000Y-102250000D01*
X143380000Y-97000000D02*
X142177919Y-97000000D01*
X142177919Y-97000000D02*
X141250000Y-97927919D01*
X135750000Y-104500000D02*
X141000000Y-104500000D01*
G04 #@! TO.N,+5V*
X135600000Y-102350000D02*
X135750000Y-102500000D01*
X132000000Y-102350000D02*
X135600000Y-102350000D01*
X132100000Y-104650000D02*
X133000000Y-104650000D01*
X132000000Y-104550000D02*
X132100000Y-104650000D01*
X132000000Y-102350000D02*
X132000000Y-104550000D01*
G04 #@! TO.N,MAP_SIG*
X134900000Y-99650000D02*
X135750000Y-100500000D01*
X132000000Y-99650000D02*
X134900000Y-99650000D01*
X141254998Y-103600000D02*
X148500000Y-103600000D01*
X138154998Y-100500000D02*
X141254998Y-103600000D01*
X135750000Y-100500000D02*
X138154998Y-100500000D01*
X154710000Y-105950000D02*
X154000000Y-105240000D01*
X154710000Y-106950000D02*
X154710000Y-105950000D01*
X154000000Y-102842559D02*
X154003527Y-102839032D01*
X154000000Y-105240000D02*
X154000000Y-102842559D01*
G04 #@! TO.N,CMP_SIG*
X134900000Y-107350000D02*
X135750000Y-106500000D01*
X133000000Y-107350000D02*
X134900000Y-107350000D01*
X141350000Y-111800000D02*
X142100000Y-111800000D01*
X136050000Y-106500000D02*
X141350000Y-111800000D01*
X135750000Y-106500000D02*
X136050000Y-106500000D01*
X133839999Y-95824999D02*
X147284999Y-95824999D01*
X131024999Y-98639999D02*
X133839999Y-95824999D01*
X147610001Y-96150001D02*
X148460000Y-97000000D01*
X131024999Y-106274999D02*
X131024999Y-98639999D01*
X147284999Y-95824999D02*
X147610001Y-96150001D01*
X132100000Y-107350000D02*
X131024999Y-106274999D01*
X133000000Y-107350000D02*
X132100000Y-107350000D01*
G04 #@! TO.N,VREF*
X143750000Y-98484998D02*
X143750000Y-102750000D01*
X144384999Y-97849999D02*
X143750000Y-98484998D01*
X145920000Y-97000000D02*
X145070001Y-97849999D01*
X145070001Y-97849999D02*
X144384999Y-97849999D01*
G04 #@! TO.N,MAP1_SIG*
X154930001Y-100625003D02*
X155980000Y-101675002D01*
X154930001Y-98164999D02*
X154930001Y-100625003D01*
X153765002Y-97000000D02*
X154930001Y-98164999D01*
X151000000Y-97000000D02*
X153765002Y-97000000D01*
X147600000Y-108169557D02*
X147600000Y-111500000D01*
X154094555Y-101675002D02*
X147600000Y-108169557D01*
X155980000Y-101675002D02*
X154094555Y-101675002D01*
X136425000Y-112250000D02*
X135500000Y-112250000D01*
X138000000Y-113750000D02*
X136425000Y-112250000D01*
X145250000Y-113750000D02*
X138000000Y-113750000D01*
X147560000Y-116250000D02*
X147560000Y-115550000D01*
X147560000Y-115550000D02*
X145250000Y-113750000D01*
G04 #@! TO.N,MAP2_SIG*
X159060000Y-116250000D02*
X159060000Y-115550000D01*
X162500000Y-104750000D02*
X161594998Y-104750000D01*
X161594998Y-104750000D02*
X158520000Y-101675002D01*
X141726998Y-112500000D02*
X141976998Y-112750000D01*
X141976998Y-112750000D02*
X156260000Y-112750000D01*
X141000000Y-112500000D02*
X141726998Y-112500000D01*
X140000000Y-111500000D02*
X141000000Y-112500000D01*
X159060000Y-115550000D02*
X156260000Y-112750000D01*
X133500000Y-112250000D02*
X134500001Y-111249999D01*
X134500001Y-111249999D02*
X136435001Y-111249999D01*
X136435001Y-111249999D02*
X136750000Y-111500000D01*
X136750000Y-111500000D02*
X140000000Y-111500000D01*
G04 #@! TO.N,MAP3_SIG*
X136174999Y-114924999D02*
X135500000Y-114250000D01*
X139150001Y-117900001D02*
X136174999Y-114924999D01*
X169609999Y-117900001D02*
X139150001Y-117900001D01*
X170560000Y-116950000D02*
X169609999Y-117900001D01*
X170560000Y-116250000D02*
X170560000Y-116950000D01*
X158520000Y-107950000D02*
X159320000Y-108750000D01*
X158520000Y-106950000D02*
X158520000Y-107950000D01*
X159320000Y-108750000D02*
X168750000Y-108750000D01*
G04 #@! TO.N,MAP4_SIG*
X132825001Y-114924999D02*
X133500000Y-114250000D01*
X132499999Y-115250001D02*
X132825001Y-114924999D01*
X132499999Y-116730001D02*
X132499999Y-115250001D01*
X134120009Y-118350011D02*
X132499999Y-116730001D01*
X180659989Y-118350011D02*
X134120009Y-118350011D01*
X182060000Y-116950000D02*
X180659989Y-118350011D01*
X182060000Y-116250000D02*
X182060000Y-116950000D01*
X156705001Y-106224999D02*
X155980000Y-106950000D01*
X176974999Y-106224999D02*
X156705001Y-106224999D01*
X177750000Y-107000000D02*
X176974999Y-106224999D01*
G04 #@! TD*
M02*
