G04 #@! TF.GenerationSoftware,KiCad,Pcbnew,(5.0.0)*
G04 #@! TF.CreationDate,2020-12-02T22:32:57+00:00*
G04 #@! TF.ProjectId,CBR015-0056_QUAD_MAP-CMP_SENSOR_PCB,4342523031352D303035365F51554144,00*
G04 #@! TF.SameCoordinates,Original*
G04 #@! TF.FileFunction,Copper,L2,Bot,Signal*
G04 #@! TF.FilePolarity,Positive*
%FSLAX46Y46*%
G04 Gerber Fmt 4.6, Leading zero omitted, Abs format (unit mm)*
G04 Created by KiCad (PCBNEW (5.0.0)) date 12/02/20 22:32:57*
%MOMM*%
%LPD*%
G01*
G04 APERTURE LIST*
G04 #@! TA.AperFunction,SMDPad,CuDef*
%ADD10R,1.500000X1.250000*%
G04 #@! TD*
G04 #@! TA.AperFunction,SMDPad,CuDef*
%ADD11R,1.500000X1.300000*%
G04 #@! TD*
G04 #@! TA.AperFunction,SMDPad,CuDef*
%ADD12R,1.560000X0.650000*%
G04 #@! TD*
G04 #@! TA.AperFunction,ComponentPad*
%ADD13O,1.700000X1.700000*%
G04 #@! TD*
G04 #@! TA.AperFunction,ComponentPad*
%ADD14R,1.700000X1.700000*%
G04 #@! TD*
G04 #@! TA.AperFunction,ComponentPad*
%ADD15O,2.000000X1.400000*%
G04 #@! TD*
G04 #@! TA.AperFunction,ComponentPad*
%ADD16C,1.500000*%
G04 #@! TD*
G04 #@! TA.AperFunction,ComponentPad*
%ADD17O,1.350000X1.350000*%
G04 #@! TD*
G04 #@! TA.AperFunction,ComponentPad*
%ADD18R,1.350000X1.350000*%
G04 #@! TD*
G04 #@! TA.AperFunction,SMDPad,CuDef*
%ADD19R,0.600000X1.500000*%
G04 #@! TD*
G04 #@! TA.AperFunction,SMDPad,CuDef*
%ADD20R,0.600000X1.400000*%
G04 #@! TD*
G04 #@! TA.AperFunction,ViaPad*
%ADD21C,0.800000*%
G04 #@! TD*
G04 #@! TA.AperFunction,Conductor*
%ADD22C,0.250000*%
G04 #@! TD*
G04 #@! TA.AperFunction,Conductor*
%ADD23C,0.400000*%
G04 #@! TD*
G04 #@! TA.AperFunction,Conductor*
%ADD24C,0.254000*%
G04 #@! TD*
G04 APERTURE END LIST*
D10*
G04 #@! TO.P,C1,2*
G04 #@! TO.N,Earth*
X145000000Y-116250000D03*
G04 #@! TO.P,C1,1*
G04 #@! TO.N,+5V*
X142500000Y-116250000D03*
G04 #@! TD*
G04 #@! TO.P,C2,1*
G04 #@! TO.N,Earth*
X145000000Y-113750000D03*
G04 #@! TO.P,C2,2*
G04 #@! TO.N,MAP1_SIG*
X147500000Y-113750000D03*
G04 #@! TD*
D11*
G04 #@! TO.P,R2,1*
G04 #@! TO.N,MAP1_SIG*
X147600000Y-111500000D03*
G04 #@! TO.P,R2,2*
G04 #@! TO.N,Earth*
X144900000Y-111500000D03*
G04 #@! TD*
D12*
G04 #@! TO.P,U1,5*
G04 #@! TO.N,+5V*
X142100000Y-113700000D03*
G04 #@! TO.P,U1,4*
G04 #@! TO.N,CMP_SIG*
X142100000Y-111800000D03*
G04 #@! TO.P,U1,3*
G04 #@! TO.N,MAP1_SIG*
X139400000Y-111800000D03*
G04 #@! TO.P,U1,2*
G04 #@! TO.N,Earth*
X139400000Y-112750000D03*
G04 #@! TO.P,U1,1*
G04 #@! TO.N,VREF*
X139400000Y-113700000D03*
G04 #@! TD*
D13*
G04 #@! TO.P,J2,4*
G04 #@! TO.N,Earth*
X143380000Y-97000000D03*
G04 #@! TO.P,J2,3*
G04 #@! TO.N,VREF*
X145920000Y-97000000D03*
G04 #@! TO.P,J2,2*
G04 #@! TO.N,CMP_SIG*
X148460000Y-97000000D03*
D14*
G04 #@! TO.P,J2,1*
G04 #@! TO.N,MAP1_SIG*
X151000000Y-97000000D03*
G04 #@! TD*
D15*
G04 #@! TO.P,J1,1*
G04 #@! TO.N,CMP_SIG*
X135750000Y-106500000D03*
G04 #@! TO.P,J1,2*
G04 #@! TO.N,Earth*
X135750000Y-104500000D03*
G04 #@! TO.P,J1,3*
G04 #@! TO.N,+5V*
X135750000Y-102500000D03*
G04 #@! TO.P,J1,4*
G04 #@! TO.N,MAP_SIG*
X135750000Y-100500000D03*
D16*
G04 #@! TO.P,J1,*
G04 #@! TO.N,*
X134250000Y-98450000D03*
G04 #@! TD*
D10*
G04 #@! TO.P,C3,1*
G04 #@! TO.N,+5V*
X154000000Y-116250000D03*
G04 #@! TO.P,C3,2*
G04 #@! TO.N,Earth*
X156500000Y-116250000D03*
G04 #@! TD*
G04 #@! TO.P,C4,2*
G04 #@! TO.N,MAP2_SIG*
X159000000Y-113750000D03*
G04 #@! TO.P,C4,1*
G04 #@! TO.N,Earth*
X156500000Y-113750000D03*
G04 #@! TD*
G04 #@! TO.P,C5,2*
G04 #@! TO.N,Earth*
X168000000Y-116250000D03*
G04 #@! TO.P,C5,1*
G04 #@! TO.N,+5V*
X165500000Y-116250000D03*
G04 #@! TD*
G04 #@! TO.P,C6,1*
G04 #@! TO.N,Earth*
X168000000Y-113750000D03*
G04 #@! TO.P,C6,2*
G04 #@! TO.N,MAP3_SIG*
X170500000Y-113750000D03*
G04 #@! TD*
G04 #@! TO.P,C7,2*
G04 #@! TO.N,Earth*
X179500000Y-116250000D03*
G04 #@! TO.P,C7,1*
G04 #@! TO.N,+5V*
X177000000Y-116250000D03*
G04 #@! TD*
G04 #@! TO.P,C8,1*
G04 #@! TO.N,Earth*
X178250000Y-113750000D03*
G04 #@! TO.P,C8,2*
G04 #@! TO.N,MAP4_SIG*
X180750000Y-113750000D03*
G04 #@! TD*
D17*
G04 #@! TO.P,J3,6*
G04 #@! TO.N,+5V*
X133500000Y-116250000D03*
G04 #@! TO.P,J3,5*
G04 #@! TO.N,Earth*
X135500000Y-116250000D03*
G04 #@! TO.P,J3,4*
G04 #@! TO.N,MAP4_SIG*
X133500000Y-114250000D03*
G04 #@! TO.P,J3,3*
G04 #@! TO.N,MAP3_SIG*
X135500000Y-114250000D03*
G04 #@! TO.P,J3,2*
G04 #@! TO.N,MAP2_SIG*
X133500000Y-112250000D03*
D18*
G04 #@! TO.P,J3,1*
G04 #@! TO.N,MAP1_SIG*
X135500000Y-112250000D03*
G04 #@! TD*
D11*
G04 #@! TO.P,R3,2*
G04 #@! TO.N,Earth*
X156400000Y-111500000D03*
G04 #@! TO.P,R3,1*
G04 #@! TO.N,MAP2_SIG*
X159100000Y-111500000D03*
G04 #@! TD*
G04 #@! TO.P,R4,1*
G04 #@! TO.N,MAP3_SIG*
X170600000Y-111500000D03*
G04 #@! TO.P,R4,2*
G04 #@! TO.N,Earth*
X167900000Y-111500000D03*
G04 #@! TD*
G04 #@! TO.P,R5,2*
G04 #@! TO.N,Earth*
X178150000Y-111500000D03*
G04 #@! TO.P,R5,1*
G04 #@! TO.N,MAP4_SIG*
X180850000Y-111500000D03*
G04 #@! TD*
D19*
G04 #@! TO.P,U6,14*
G04 #@! TO.N,Net-(D1-Pad5)*
X153440000Y-106950000D03*
G04 #@! TO.P,U6,13*
G04 #@! TO.N,MAP_SIG*
X154710000Y-106950000D03*
G04 #@! TO.P,U6,12*
G04 #@! TO.N,MAP4_SIG*
X155980000Y-106950000D03*
G04 #@! TO.P,U6,11*
G04 #@! TO.N,Earth*
X157250000Y-106950000D03*
G04 #@! TO.P,U6,10*
G04 #@! TO.N,MAP3_SIG*
X158520000Y-106950000D03*
G04 #@! TO.P,U6,9*
G04 #@! TO.N,MAP_SIG*
X159790000Y-106950000D03*
G04 #@! TO.P,U6,8*
G04 #@! TO.N,Net-(D1-Pad4)*
X161060000Y-106950000D03*
G04 #@! TO.P,U6,7*
G04 #@! TO.N,Net-(D1-Pad3)*
X161060000Y-101550000D03*
G04 #@! TO.P,U6,6*
G04 #@! TO.N,MAP_SIG*
X159790000Y-101550000D03*
G04 #@! TO.P,U6,5*
G04 #@! TO.N,MAP2_SIG*
X158520000Y-101550000D03*
G04 #@! TO.P,U6,4*
G04 #@! TO.N,+5V*
X157250000Y-101550000D03*
G04 #@! TO.P,U6,3*
G04 #@! TO.N,MAP1_SIG*
X155980000Y-101550000D03*
G04 #@! TO.P,U6,2*
G04 #@! TO.N,MAP_SIG*
X154710000Y-101550000D03*
G04 #@! TO.P,U6,1*
G04 #@! TO.N,Net-(D1-Pad1)*
X153440000Y-101550000D03*
G04 #@! TD*
D20*
G04 #@! TO.P,D1,5*
G04 #@! TO.N,Net-(D1-Pad5)*
X147550000Y-105900000D03*
G04 #@! TO.P,D1,1*
G04 #@! TO.N,Net-(D1-Pad1)*
X147550000Y-103600000D03*
G04 #@! TO.P,D1,2*
G04 #@! TO.N,MAP_SIG*
X148500000Y-103600000D03*
G04 #@! TO.P,D1,4*
G04 #@! TO.N,Net-(D1-Pad4)*
X149450000Y-105900000D03*
G04 #@! TO.P,D1,3*
G04 #@! TO.N,Net-(D1-Pad3)*
X149450000Y-103600000D03*
G04 #@! TD*
D11*
G04 #@! TO.P,R7,1*
G04 #@! TO.N,+5V*
X139650000Y-107250000D03*
G04 #@! TO.P,R7,2*
G04 #@! TO.N,VREF*
X142350000Y-107250000D03*
G04 #@! TD*
G04 #@! TO.P,R8,2*
G04 #@! TO.N,Earth*
X139650000Y-109250000D03*
G04 #@! TO.P,R8,1*
G04 #@! TO.N,VREF*
X142350000Y-109250000D03*
G04 #@! TD*
D21*
G04 #@! TO.N,Earth*
X179500000Y-116250000D03*
X168000000Y-116250000D03*
X156500000Y-116250000D03*
X145000000Y-116250000D03*
X156400000Y-111500000D03*
X157250000Y-106950000D03*
X141250000Y-102250000D03*
X141000000Y-104500000D03*
G04 #@! TO.N,+5V*
X154000000Y-116250000D03*
X142500000Y-116250000D03*
X165500000Y-116250000D03*
X177000000Y-116250000D03*
G04 #@! TO.N,MAP_SIG*
X148500000Y-103600000D03*
X154710000Y-106950000D03*
X154003527Y-102839032D03*
G04 #@! TO.N,CMP_SIG*
X142100000Y-111800000D03*
G04 #@! TO.N,VREF*
X143750000Y-102750000D03*
G04 #@! TO.N,MAP1_SIG*
X147560000Y-116250000D03*
X155980000Y-101675002D03*
X147600000Y-111500000D03*
G04 #@! TO.N,MAP2_SIG*
X159060000Y-116250000D03*
X162500000Y-104750000D03*
X158520000Y-101675002D03*
G04 #@! TO.N,MAP3_SIG*
X170560000Y-116250000D03*
X158520000Y-106950000D03*
X168750000Y-108750000D03*
G04 #@! TO.N,MAP4_SIG*
X182060000Y-116250000D03*
X177750000Y-107000000D03*
X155980000Y-106950000D03*
G04 #@! TD*
D22*
G04 #@! TO.N,Earth*
X139400000Y-112750000D02*
X137750000Y-112750000D01*
X139650000Y-110150000D02*
X139650000Y-109250000D01*
X140505001Y-111005001D02*
X139650000Y-110150000D01*
X140505001Y-112674999D02*
X140505001Y-111005001D01*
X140430000Y-112750000D02*
X140505001Y-112674999D01*
X139400000Y-112750000D02*
X140430000Y-112750000D01*
G04 #@! TO.N,+5V*
X139650000Y-106350000D02*
X139650000Y-107250000D01*
X139650000Y-105150000D02*
X139650000Y-106350000D01*
X137000000Y-102500000D02*
X139650000Y-105150000D01*
X135750000Y-102500000D02*
X137000000Y-102500000D01*
X142500000Y-114100000D02*
X142100000Y-113700000D01*
X142500000Y-116250000D02*
X142500000Y-114100000D01*
X176000000Y-116250000D02*
X177000000Y-116250000D01*
X175049999Y-117200001D02*
X176000000Y-116250000D01*
X165500000Y-117125000D02*
X165575001Y-117200001D01*
X154000000Y-117125000D02*
X154075001Y-117200001D01*
X154000000Y-116250000D02*
X154000000Y-117125000D01*
X165575001Y-117200001D02*
X166500000Y-117200001D01*
X166500000Y-117200001D02*
X175049999Y-117200001D01*
X142500000Y-117125000D02*
X142575001Y-117200001D01*
X142500000Y-116250000D02*
X142500000Y-117125000D01*
X154075001Y-117200001D02*
X154500000Y-117200001D01*
X142700000Y-117250001D02*
X142750000Y-117200001D01*
X134500001Y-117250001D02*
X142700000Y-117250001D01*
X133500000Y-116250000D02*
X134500001Y-117250001D01*
X142575001Y-117200001D02*
X142750000Y-117200001D01*
X142750000Y-117200001D02*
X154500000Y-117200001D01*
X136050000Y-102500000D02*
X135750000Y-102500000D01*
X138075001Y-100474999D02*
X136050000Y-102500000D01*
X156540001Y-100474999D02*
X138075001Y-100474999D01*
X157250000Y-101184998D02*
X156540001Y-100474999D01*
X157250000Y-101550000D02*
X157250000Y-101184998D01*
D23*
X132750000Y-116250000D02*
X133500000Y-116250000D01*
X134500000Y-102500000D02*
X131750000Y-105250000D01*
X135750000Y-102500000D02*
X134500000Y-102500000D01*
X131750000Y-105250000D02*
X131750000Y-115250000D01*
X131750000Y-115250000D02*
X132750000Y-116250000D01*
D22*
X165500000Y-117125000D02*
X165500000Y-117200001D01*
X165500000Y-116250000D02*
X165500000Y-117125000D01*
X154500000Y-117200001D02*
X165500000Y-117200001D01*
X165500000Y-117200001D02*
X166500000Y-117200001D01*
G04 #@! TO.N,MAP_SIG*
X152829997Y-102574999D02*
X153004998Y-102750000D01*
X148889999Y-102574999D02*
X152829997Y-102574999D01*
X148500000Y-103600000D02*
X148500000Y-102964998D01*
X148500000Y-102964998D02*
X148889999Y-102574999D01*
X154710000Y-102000000D02*
X154710000Y-101550000D01*
X153960000Y-102750000D02*
X154710000Y-102000000D01*
X159790000Y-102000000D02*
X159790000Y-101550000D01*
X159040000Y-102750000D02*
X159790000Y-102000000D01*
X153960000Y-102750000D02*
X159040000Y-102750000D01*
X153004998Y-102750000D02*
X154003527Y-102839032D01*
X154003527Y-102839032D02*
X153960000Y-102750000D01*
X154710000Y-107400000D02*
X154710000Y-106950000D01*
X155335001Y-108025001D02*
X154710000Y-107400000D01*
X159714999Y-108025001D02*
X155335001Y-108025001D01*
X159790000Y-107950000D02*
X159714999Y-108025001D01*
X159790000Y-106950000D02*
X159790000Y-107950000D01*
G04 #@! TO.N,VREF*
X142350000Y-107250000D02*
X142350000Y-109250000D01*
X142350000Y-104150000D02*
X142350000Y-107250000D01*
X143750000Y-102750000D02*
X142350000Y-104150000D01*
X142250000Y-109250000D02*
X142350000Y-109250000D01*
X140994999Y-110505001D02*
X142250000Y-109250000D01*
X140994999Y-113135001D02*
X140994999Y-110505001D01*
X140430000Y-113700000D02*
X140994999Y-113135001D01*
X139400000Y-113700000D02*
X140430000Y-113700000D01*
G04 #@! TO.N,MAP1_SIG*
X147500000Y-113750000D02*
X147500000Y-116190000D01*
X147500000Y-116190000D02*
X147560000Y-116250000D01*
X147500000Y-111600000D02*
X147600000Y-111500000D01*
X147500000Y-113750000D02*
X147500000Y-111600000D01*
X135950000Y-111800000D02*
X135500000Y-112250000D01*
X139400000Y-111800000D02*
X135950000Y-111800000D01*
G04 #@! TO.N,MAP2_SIG*
X159100000Y-113650000D02*
X159000000Y-113750000D01*
X159100000Y-111500000D02*
X159100000Y-113650000D01*
X159000000Y-113750000D02*
X159000000Y-116190000D01*
X159000000Y-116190000D02*
X159060000Y-116250000D01*
X162500000Y-107200000D02*
X162500000Y-104750000D01*
X159100000Y-111500000D02*
X159100000Y-110600000D01*
X159100000Y-110600000D02*
X162500000Y-107200000D01*
G04 #@! TO.N,MAP3_SIG*
X170600000Y-113650000D02*
X170500000Y-113750000D01*
X170600000Y-111500000D02*
X170600000Y-113650000D01*
X170500000Y-113750000D02*
X170500000Y-116190000D01*
X170500000Y-116190000D02*
X170560000Y-116250000D01*
X170600000Y-110600000D02*
X168750000Y-108750000D01*
X170600000Y-111500000D02*
X170600000Y-110600000D01*
G04 #@! TO.N,MAP4_SIG*
X180850000Y-113650000D02*
X180750000Y-113750000D01*
X180850000Y-111500000D02*
X180850000Y-113650000D01*
X180750000Y-113750000D02*
X180750000Y-114940000D01*
X180750000Y-114940000D02*
X182060000Y-116250000D01*
X180850000Y-111500000D02*
X180850000Y-110100000D01*
X180850000Y-110100000D02*
X177750000Y-107000000D01*
G04 #@! TO.N,Net-(D1-Pad5)*
X152890000Y-106950000D02*
X153440000Y-106950000D01*
X148200000Y-106950000D02*
X152890000Y-106950000D01*
X147550000Y-106300000D02*
X148200000Y-106950000D01*
X147550000Y-105900000D02*
X147550000Y-106300000D01*
G04 #@! TO.N,Net-(D1-Pad4)*
X161060000Y-106500000D02*
X161060000Y-106950000D01*
X160434999Y-105874999D02*
X161060000Y-106500000D01*
X150025001Y-105874999D02*
X160434999Y-105874999D01*
X150000000Y-105900000D02*
X150025001Y-105874999D01*
X149450000Y-105900000D02*
X150000000Y-105900000D01*
G04 #@! TO.N,Net-(D1-Pad3)*
X161060000Y-102000000D02*
X161060000Y-101550000D01*
X159460000Y-103600000D02*
X161060000Y-102000000D01*
X149450000Y-103600000D02*
X159460000Y-103600000D01*
G04 #@! TO.N,Net-(D1-Pad1)*
X152890000Y-101550000D02*
X153440000Y-101550000D01*
X148964998Y-101550000D02*
X152890000Y-101550000D01*
X147550000Y-102964998D02*
X148964998Y-101550000D01*
X147550000Y-103600000D02*
X147550000Y-102964998D01*
G04 #@! TD*
D24*
G04 #@! TO.N,Earth*
G36*
X142184817Y-96118642D02*
X141938514Y-96643108D01*
X142059181Y-96873000D01*
X143253000Y-96873000D01*
X143253000Y-96853000D01*
X143507000Y-96853000D01*
X143507000Y-96873000D01*
X143527000Y-96873000D01*
X143527000Y-97127000D01*
X143507000Y-97127000D01*
X143507000Y-98320155D01*
X143736890Y-98441476D01*
X144146924Y-98271645D01*
X144575183Y-97881358D01*
X144636157Y-97751522D01*
X144849375Y-98070625D01*
X145340582Y-98398839D01*
X145773744Y-98485000D01*
X146066256Y-98485000D01*
X146499418Y-98398839D01*
X146990625Y-98070625D01*
X147190000Y-97772239D01*
X147389375Y-98070625D01*
X147880582Y-98398839D01*
X148313744Y-98485000D01*
X148606256Y-98485000D01*
X149039418Y-98398839D01*
X149530625Y-98070625D01*
X149542816Y-98052381D01*
X149551843Y-98097765D01*
X149692191Y-98307809D01*
X149902235Y-98448157D01*
X150150000Y-98497440D01*
X151850000Y-98497440D01*
X152097765Y-98448157D01*
X152307809Y-98307809D01*
X152448157Y-98097765D01*
X152497440Y-97850000D01*
X152497440Y-96150000D01*
X152448157Y-95902235D01*
X152336413Y-95735000D01*
X181457298Y-95735000D01*
X182019918Y-95800594D01*
X182511944Y-95979191D01*
X182949692Y-96266192D01*
X183309668Y-96646190D01*
X183572576Y-97098821D01*
X183727220Y-97609416D01*
X183765001Y-98032743D01*
X183765000Y-116957298D01*
X183699405Y-117519918D01*
X183520809Y-118011944D01*
X183233810Y-118449689D01*
X182853807Y-118809670D01*
X182401180Y-119072576D01*
X181890584Y-119227220D01*
X181467269Y-119265000D01*
X133042702Y-119265000D01*
X132480082Y-119199405D01*
X131988056Y-119020809D01*
X131550311Y-118733810D01*
X131190330Y-118353807D01*
X130927424Y-117901180D01*
X130772780Y-117390584D01*
X130735000Y-116967269D01*
X130735000Y-105250000D01*
X130898643Y-105250000D01*
X130915000Y-105332233D01*
X130915001Y-115167762D01*
X130898643Y-115250000D01*
X130963448Y-115575800D01*
X131047820Y-115702071D01*
X131148000Y-115852001D01*
X131217718Y-115898585D01*
X132101415Y-116782282D01*
X132147999Y-116852001D01*
X132424199Y-117036552D01*
X132453994Y-117042479D01*
X132555543Y-117194457D01*
X132988864Y-117483993D01*
X133370978Y-117560000D01*
X133629022Y-117560000D01*
X133717583Y-117542384D01*
X133909672Y-117734474D01*
X133952072Y-117797930D01*
X134203464Y-117965905D01*
X134425149Y-118010001D01*
X134425154Y-118010001D01*
X134500001Y-118024889D01*
X134574848Y-118010001D01*
X142625153Y-118010001D01*
X142700000Y-118024889D01*
X142774847Y-118010001D01*
X142774852Y-118010001D01*
X142996537Y-117965905D01*
X143005373Y-117960001D01*
X154000153Y-117960001D01*
X154075000Y-117974889D01*
X154149847Y-117960001D01*
X165425148Y-117960001D01*
X165500000Y-117974890D01*
X165537503Y-117967430D01*
X165575000Y-117974889D01*
X165649847Y-117960001D01*
X174975152Y-117960001D01*
X175049999Y-117974889D01*
X175124846Y-117960001D01*
X175124851Y-117960001D01*
X175346536Y-117915905D01*
X175597928Y-117747930D01*
X175640330Y-117684472D01*
X175911963Y-117412839D01*
X176002235Y-117473157D01*
X176250000Y-117522440D01*
X177750000Y-117522440D01*
X177997765Y-117473157D01*
X178207809Y-117332809D01*
X178248654Y-117271680D01*
X178390302Y-117413327D01*
X178623691Y-117510000D01*
X179214250Y-117510000D01*
X179373000Y-117351250D01*
X179373000Y-116377000D01*
X179627000Y-116377000D01*
X179627000Y-117351250D01*
X179785750Y-117510000D01*
X180376309Y-117510000D01*
X180609698Y-117413327D01*
X180788327Y-117234699D01*
X180885000Y-117001310D01*
X180885000Y-116535750D01*
X180726250Y-116377000D01*
X179627000Y-116377000D01*
X179373000Y-116377000D01*
X179353000Y-116377000D01*
X179353000Y-116123000D01*
X179373000Y-116123000D01*
X179373000Y-115148750D01*
X179214250Y-114990000D01*
X179174593Y-114990000D01*
X179359698Y-114913327D01*
X179501346Y-114771680D01*
X179542191Y-114832809D01*
X179752235Y-114973157D01*
X179836911Y-114990000D01*
X179785750Y-114990000D01*
X179627000Y-115148750D01*
X179627000Y-116123000D01*
X180726250Y-116123000D01*
X180792224Y-116057026D01*
X181025000Y-116289802D01*
X181025000Y-116455874D01*
X181182569Y-116836280D01*
X181473720Y-117127431D01*
X181854126Y-117285000D01*
X182265874Y-117285000D01*
X182646280Y-117127431D01*
X182937431Y-116836280D01*
X183095000Y-116455874D01*
X183095000Y-116044126D01*
X182937431Y-115663720D01*
X182646280Y-115372569D01*
X182265874Y-115215000D01*
X182099802Y-115215000D01*
X181813821Y-114929020D01*
X181957809Y-114832809D01*
X182098157Y-114622765D01*
X182147440Y-114375000D01*
X182147440Y-113125000D01*
X182098157Y-112877235D01*
X181961244Y-112672332D01*
X182057809Y-112607809D01*
X182198157Y-112397765D01*
X182247440Y-112150000D01*
X182247440Y-110850000D01*
X182198157Y-110602235D01*
X182057809Y-110392191D01*
X181847765Y-110251843D01*
X181610000Y-110204549D01*
X181610000Y-110174846D01*
X181624888Y-110099999D01*
X181610000Y-110025152D01*
X181610000Y-110025148D01*
X181565904Y-109803463D01*
X181397929Y-109552071D01*
X181334473Y-109509671D01*
X178785000Y-106960199D01*
X178785000Y-106794126D01*
X178627431Y-106413720D01*
X178336280Y-106122569D01*
X177955874Y-105965000D01*
X177544126Y-105965000D01*
X177163720Y-106122569D01*
X176872569Y-106413720D01*
X176715000Y-106794126D01*
X176715000Y-107205874D01*
X176872569Y-107586280D01*
X177163720Y-107877431D01*
X177544126Y-108035000D01*
X177710199Y-108035000D01*
X179914630Y-110239432D01*
X179852235Y-110251843D01*
X179642191Y-110392191D01*
X179501843Y-110602235D01*
X179496279Y-110630209D01*
X179438327Y-110490301D01*
X179259698Y-110311673D01*
X179026309Y-110215000D01*
X178435750Y-110215000D01*
X178277000Y-110373750D01*
X178277000Y-111373000D01*
X178297000Y-111373000D01*
X178297000Y-111627000D01*
X178277000Y-111627000D01*
X178277000Y-112626250D01*
X178377000Y-112726250D01*
X178377000Y-113623000D01*
X178397000Y-113623000D01*
X178397000Y-113877000D01*
X178377000Y-113877000D01*
X178377000Y-114851250D01*
X178535750Y-115010000D01*
X178575407Y-115010000D01*
X178390302Y-115086673D01*
X178248654Y-115228320D01*
X178207809Y-115167191D01*
X177997765Y-115026843D01*
X177913089Y-115010000D01*
X177964250Y-115010000D01*
X178123000Y-114851250D01*
X178123000Y-113877000D01*
X177023750Y-113877000D01*
X176865000Y-114035750D01*
X176865000Y-114501310D01*
X176961673Y-114734699D01*
X177140302Y-114913327D01*
X177295374Y-114977560D01*
X176250000Y-114977560D01*
X176002235Y-115026843D01*
X175792191Y-115167191D01*
X175651843Y-115377235D01*
X175607947Y-115597918D01*
X175515526Y-115659671D01*
X175515524Y-115659673D01*
X175452071Y-115702071D01*
X175409673Y-115765525D01*
X174735197Y-116440001D01*
X171595000Y-116440001D01*
X171595000Y-116044126D01*
X171437431Y-115663720D01*
X171260000Y-115486289D01*
X171260000Y-115020451D01*
X171497765Y-114973157D01*
X171707809Y-114832809D01*
X171848157Y-114622765D01*
X171897440Y-114375000D01*
X171897440Y-113125000D01*
X171848157Y-112877235D01*
X171711244Y-112672332D01*
X171807809Y-112607809D01*
X171948157Y-112397765D01*
X171997440Y-112150000D01*
X171997440Y-111785750D01*
X176765000Y-111785750D01*
X176765000Y-112276310D01*
X176861673Y-112509699D01*
X177039475Y-112687500D01*
X176961673Y-112765301D01*
X176865000Y-112998690D01*
X176865000Y-113464250D01*
X177023750Y-113623000D01*
X178123000Y-113623000D01*
X178123000Y-112648750D01*
X178023000Y-112548750D01*
X178023000Y-111627000D01*
X176923750Y-111627000D01*
X176765000Y-111785750D01*
X171997440Y-111785750D01*
X171997440Y-110850000D01*
X171972316Y-110723690D01*
X176765000Y-110723690D01*
X176765000Y-111214250D01*
X176923750Y-111373000D01*
X178023000Y-111373000D01*
X178023000Y-110373750D01*
X177864250Y-110215000D01*
X177273691Y-110215000D01*
X177040302Y-110311673D01*
X176861673Y-110490301D01*
X176765000Y-110723690D01*
X171972316Y-110723690D01*
X171948157Y-110602235D01*
X171807809Y-110392191D01*
X171597765Y-110251843D01*
X171350000Y-110202560D01*
X171248483Y-110202560D01*
X171147929Y-110052071D01*
X171084473Y-110009671D01*
X169785000Y-108710199D01*
X169785000Y-108544126D01*
X169627431Y-108163720D01*
X169336280Y-107872569D01*
X168955874Y-107715000D01*
X168544126Y-107715000D01*
X168163720Y-107872569D01*
X167872569Y-108163720D01*
X167715000Y-108544126D01*
X167715000Y-108955874D01*
X167872569Y-109336280D01*
X168163720Y-109627431D01*
X168544126Y-109785000D01*
X168710199Y-109785000D01*
X169362230Y-110437031D01*
X169251843Y-110602235D01*
X169246279Y-110630209D01*
X169188327Y-110490301D01*
X169009698Y-110311673D01*
X168776309Y-110215000D01*
X168185750Y-110215000D01*
X168027000Y-110373750D01*
X168027000Y-111373000D01*
X168047000Y-111373000D01*
X168047000Y-111627000D01*
X168027000Y-111627000D01*
X168027000Y-112626250D01*
X168127000Y-112726250D01*
X168127000Y-113623000D01*
X168147000Y-113623000D01*
X168147000Y-113877000D01*
X168127000Y-113877000D01*
X168127000Y-114851250D01*
X168275750Y-115000000D01*
X168127000Y-115148750D01*
X168127000Y-116123000D01*
X169226250Y-116123000D01*
X169385000Y-115964250D01*
X169385000Y-115498690D01*
X169288327Y-115265301D01*
X169109698Y-115086673D01*
X168900451Y-115000000D01*
X169109698Y-114913327D01*
X169251346Y-114771680D01*
X169292191Y-114832809D01*
X169502235Y-114973157D01*
X169740001Y-115020451D01*
X169740001Y-115606288D01*
X169682569Y-115663720D01*
X169525000Y-116044126D01*
X169525000Y-116440001D01*
X169289251Y-116440001D01*
X169226250Y-116377000D01*
X168127000Y-116377000D01*
X168127000Y-116397000D01*
X167873000Y-116397000D01*
X167873000Y-116377000D01*
X167853000Y-116377000D01*
X167853000Y-116123000D01*
X167873000Y-116123000D01*
X167873000Y-115148750D01*
X167724250Y-115000000D01*
X167873000Y-114851250D01*
X167873000Y-113877000D01*
X166773750Y-113877000D01*
X166615000Y-114035750D01*
X166615000Y-114501310D01*
X166711673Y-114734699D01*
X166890302Y-114913327D01*
X167099549Y-115000000D01*
X166890302Y-115086673D01*
X166748654Y-115228320D01*
X166707809Y-115167191D01*
X166497765Y-115026843D01*
X166250000Y-114977560D01*
X164750000Y-114977560D01*
X164502235Y-115026843D01*
X164292191Y-115167191D01*
X164151843Y-115377235D01*
X164102560Y-115625000D01*
X164102560Y-116440001D01*
X160095000Y-116440001D01*
X160095000Y-116044126D01*
X159937431Y-115663720D01*
X159760000Y-115486289D01*
X159760000Y-115020451D01*
X159997765Y-114973157D01*
X160207809Y-114832809D01*
X160348157Y-114622765D01*
X160397440Y-114375000D01*
X160397440Y-113125000D01*
X160348157Y-112877235D01*
X160211244Y-112672332D01*
X160307809Y-112607809D01*
X160448157Y-112397765D01*
X160497440Y-112150000D01*
X160497440Y-111785750D01*
X166515000Y-111785750D01*
X166515000Y-112276310D01*
X166611673Y-112509699D01*
X166789475Y-112687500D01*
X166711673Y-112765301D01*
X166615000Y-112998690D01*
X166615000Y-113464250D01*
X166773750Y-113623000D01*
X167873000Y-113623000D01*
X167873000Y-112648750D01*
X167773000Y-112548750D01*
X167773000Y-111627000D01*
X166673750Y-111627000D01*
X166515000Y-111785750D01*
X160497440Y-111785750D01*
X160497440Y-110850000D01*
X160472316Y-110723690D01*
X166515000Y-110723690D01*
X166515000Y-111214250D01*
X166673750Y-111373000D01*
X167773000Y-111373000D01*
X167773000Y-110373750D01*
X167614250Y-110215000D01*
X167023691Y-110215000D01*
X166790302Y-110311673D01*
X166611673Y-110490301D01*
X166515000Y-110723690D01*
X160472316Y-110723690D01*
X160448157Y-110602235D01*
X160337770Y-110437031D01*
X162984473Y-107790329D01*
X163047929Y-107747929D01*
X163215904Y-107496537D01*
X163260000Y-107274852D01*
X163260000Y-107274848D01*
X163274888Y-107200001D01*
X163260000Y-107125154D01*
X163260000Y-105453711D01*
X163377431Y-105336280D01*
X163535000Y-104955874D01*
X163535000Y-104544126D01*
X163377431Y-104163720D01*
X163086280Y-103872569D01*
X162705874Y-103715000D01*
X162294126Y-103715000D01*
X161913720Y-103872569D01*
X161622569Y-104163720D01*
X161465000Y-104544126D01*
X161465000Y-104955874D01*
X161622569Y-105336280D01*
X161740001Y-105453712D01*
X161740001Y-105690201D01*
X161607765Y-105601843D01*
X161360000Y-105552560D01*
X161187361Y-105552560D01*
X161025330Y-105390529D01*
X160982928Y-105327070D01*
X160731536Y-105159095D01*
X160509851Y-105114999D01*
X160509846Y-105114999D01*
X160434999Y-105100111D01*
X160360152Y-105114999D01*
X150380532Y-105114999D01*
X150348157Y-104952235D01*
X150213027Y-104750000D01*
X150348157Y-104547765D01*
X150385505Y-104360000D01*
X159385153Y-104360000D01*
X159460000Y-104374888D01*
X159534847Y-104360000D01*
X159534852Y-104360000D01*
X159756537Y-104315904D01*
X160007929Y-104147929D01*
X160050331Y-104084470D01*
X161187362Y-102947440D01*
X161360000Y-102947440D01*
X161607765Y-102898157D01*
X161817809Y-102757809D01*
X161958157Y-102547765D01*
X162007440Y-102300000D01*
X162007440Y-100800000D01*
X161958157Y-100552235D01*
X161817809Y-100342191D01*
X161607765Y-100201843D01*
X161360000Y-100152560D01*
X160760000Y-100152560D01*
X160512235Y-100201843D01*
X160425000Y-100260132D01*
X160337765Y-100201843D01*
X160090000Y-100152560D01*
X159490000Y-100152560D01*
X159242235Y-100201843D01*
X159155000Y-100260132D01*
X159067765Y-100201843D01*
X158820000Y-100152560D01*
X158220000Y-100152560D01*
X157972235Y-100201843D01*
X157885000Y-100260132D01*
X157797765Y-100201843D01*
X157550000Y-100152560D01*
X157292363Y-100152560D01*
X157130332Y-99990529D01*
X157087930Y-99927070D01*
X156836538Y-99759095D01*
X156614853Y-99714999D01*
X156614848Y-99714999D01*
X156540001Y-99700111D01*
X156465154Y-99714999D01*
X138149848Y-99714999D01*
X138075001Y-99700111D01*
X138000154Y-99714999D01*
X138000149Y-99714999D01*
X137778464Y-99759095D01*
X137527072Y-99927070D01*
X137484672Y-99990526D01*
X137338824Y-100136374D01*
X137307542Y-99979109D01*
X137012481Y-99537519D01*
X136570891Y-99242458D01*
X136181485Y-99165000D01*
X135452951Y-99165000D01*
X135635000Y-98725494D01*
X135635000Y-98174506D01*
X135424147Y-97665460D01*
X135115579Y-97356892D01*
X141938514Y-97356892D01*
X142184817Y-97881358D01*
X142613076Y-98271645D01*
X143023110Y-98441476D01*
X143253000Y-98320155D01*
X143253000Y-97127000D01*
X142059181Y-97127000D01*
X141938514Y-97356892D01*
X135115579Y-97356892D01*
X135034540Y-97275853D01*
X134525494Y-97065000D01*
X133974506Y-97065000D01*
X133465460Y-97275853D01*
X133075853Y-97665460D01*
X132865000Y-98174506D01*
X132865000Y-98725494D01*
X133075853Y-99234540D01*
X133465460Y-99624147D01*
X133974506Y-99835000D01*
X134288749Y-99835000D01*
X134192458Y-99979109D01*
X134088846Y-100500000D01*
X134192458Y-101020891D01*
X134487519Y-101462481D01*
X134543670Y-101500000D01*
X134487519Y-101537519D01*
X134399975Y-101668538D01*
X134224397Y-101703463D01*
X134174199Y-101713448D01*
X133975016Y-101846538D01*
X133897999Y-101897999D01*
X133851417Y-101967715D01*
X131217720Y-104601413D01*
X131147999Y-104647999D01*
X130963448Y-104924200D01*
X130915000Y-105167764D01*
X130915000Y-105167767D01*
X130898643Y-105250000D01*
X130735000Y-105250000D01*
X130735000Y-98042702D01*
X130800594Y-97480082D01*
X130979191Y-96988056D01*
X131266192Y-96550308D01*
X131646190Y-96190332D01*
X132098821Y-95927424D01*
X132609416Y-95772780D01*
X133032732Y-95735000D01*
X142605784Y-95735000D01*
X142184817Y-96118642D01*
X142184817Y-96118642D01*
G37*
X142184817Y-96118642D02*
X141938514Y-96643108D01*
X142059181Y-96873000D01*
X143253000Y-96873000D01*
X143253000Y-96853000D01*
X143507000Y-96853000D01*
X143507000Y-96873000D01*
X143527000Y-96873000D01*
X143527000Y-97127000D01*
X143507000Y-97127000D01*
X143507000Y-98320155D01*
X143736890Y-98441476D01*
X144146924Y-98271645D01*
X144575183Y-97881358D01*
X144636157Y-97751522D01*
X144849375Y-98070625D01*
X145340582Y-98398839D01*
X145773744Y-98485000D01*
X146066256Y-98485000D01*
X146499418Y-98398839D01*
X146990625Y-98070625D01*
X147190000Y-97772239D01*
X147389375Y-98070625D01*
X147880582Y-98398839D01*
X148313744Y-98485000D01*
X148606256Y-98485000D01*
X149039418Y-98398839D01*
X149530625Y-98070625D01*
X149542816Y-98052381D01*
X149551843Y-98097765D01*
X149692191Y-98307809D01*
X149902235Y-98448157D01*
X150150000Y-98497440D01*
X151850000Y-98497440D01*
X152097765Y-98448157D01*
X152307809Y-98307809D01*
X152448157Y-98097765D01*
X152497440Y-97850000D01*
X152497440Y-96150000D01*
X152448157Y-95902235D01*
X152336413Y-95735000D01*
X181457298Y-95735000D01*
X182019918Y-95800594D01*
X182511944Y-95979191D01*
X182949692Y-96266192D01*
X183309668Y-96646190D01*
X183572576Y-97098821D01*
X183727220Y-97609416D01*
X183765001Y-98032743D01*
X183765000Y-116957298D01*
X183699405Y-117519918D01*
X183520809Y-118011944D01*
X183233810Y-118449689D01*
X182853807Y-118809670D01*
X182401180Y-119072576D01*
X181890584Y-119227220D01*
X181467269Y-119265000D01*
X133042702Y-119265000D01*
X132480082Y-119199405D01*
X131988056Y-119020809D01*
X131550311Y-118733810D01*
X131190330Y-118353807D01*
X130927424Y-117901180D01*
X130772780Y-117390584D01*
X130735000Y-116967269D01*
X130735000Y-105250000D01*
X130898643Y-105250000D01*
X130915000Y-105332233D01*
X130915001Y-115167762D01*
X130898643Y-115250000D01*
X130963448Y-115575800D01*
X131047820Y-115702071D01*
X131148000Y-115852001D01*
X131217718Y-115898585D01*
X132101415Y-116782282D01*
X132147999Y-116852001D01*
X132424199Y-117036552D01*
X132453994Y-117042479D01*
X132555543Y-117194457D01*
X132988864Y-117483993D01*
X133370978Y-117560000D01*
X133629022Y-117560000D01*
X133717583Y-117542384D01*
X133909672Y-117734474D01*
X133952072Y-117797930D01*
X134203464Y-117965905D01*
X134425149Y-118010001D01*
X134425154Y-118010001D01*
X134500001Y-118024889D01*
X134574848Y-118010001D01*
X142625153Y-118010001D01*
X142700000Y-118024889D01*
X142774847Y-118010001D01*
X142774852Y-118010001D01*
X142996537Y-117965905D01*
X143005373Y-117960001D01*
X154000153Y-117960001D01*
X154075000Y-117974889D01*
X154149847Y-117960001D01*
X165425148Y-117960001D01*
X165500000Y-117974890D01*
X165537503Y-117967430D01*
X165575000Y-117974889D01*
X165649847Y-117960001D01*
X174975152Y-117960001D01*
X175049999Y-117974889D01*
X175124846Y-117960001D01*
X175124851Y-117960001D01*
X175346536Y-117915905D01*
X175597928Y-117747930D01*
X175640330Y-117684472D01*
X175911963Y-117412839D01*
X176002235Y-117473157D01*
X176250000Y-117522440D01*
X177750000Y-117522440D01*
X177997765Y-117473157D01*
X178207809Y-117332809D01*
X178248654Y-117271680D01*
X178390302Y-117413327D01*
X178623691Y-117510000D01*
X179214250Y-117510000D01*
X179373000Y-117351250D01*
X179373000Y-116377000D01*
X179627000Y-116377000D01*
X179627000Y-117351250D01*
X179785750Y-117510000D01*
X180376309Y-117510000D01*
X180609698Y-117413327D01*
X180788327Y-117234699D01*
X180885000Y-117001310D01*
X180885000Y-116535750D01*
X180726250Y-116377000D01*
X179627000Y-116377000D01*
X179373000Y-116377000D01*
X179353000Y-116377000D01*
X179353000Y-116123000D01*
X179373000Y-116123000D01*
X179373000Y-115148750D01*
X179214250Y-114990000D01*
X179174593Y-114990000D01*
X179359698Y-114913327D01*
X179501346Y-114771680D01*
X179542191Y-114832809D01*
X179752235Y-114973157D01*
X179836911Y-114990000D01*
X179785750Y-114990000D01*
X179627000Y-115148750D01*
X179627000Y-116123000D01*
X180726250Y-116123000D01*
X180792224Y-116057026D01*
X181025000Y-116289802D01*
X181025000Y-116455874D01*
X181182569Y-116836280D01*
X181473720Y-117127431D01*
X181854126Y-117285000D01*
X182265874Y-117285000D01*
X182646280Y-117127431D01*
X182937431Y-116836280D01*
X183095000Y-116455874D01*
X183095000Y-116044126D01*
X182937431Y-115663720D01*
X182646280Y-115372569D01*
X182265874Y-115215000D01*
X182099802Y-115215000D01*
X181813821Y-114929020D01*
X181957809Y-114832809D01*
X182098157Y-114622765D01*
X182147440Y-114375000D01*
X182147440Y-113125000D01*
X182098157Y-112877235D01*
X181961244Y-112672332D01*
X182057809Y-112607809D01*
X182198157Y-112397765D01*
X182247440Y-112150000D01*
X182247440Y-110850000D01*
X182198157Y-110602235D01*
X182057809Y-110392191D01*
X181847765Y-110251843D01*
X181610000Y-110204549D01*
X181610000Y-110174846D01*
X181624888Y-110099999D01*
X181610000Y-110025152D01*
X181610000Y-110025148D01*
X181565904Y-109803463D01*
X181397929Y-109552071D01*
X181334473Y-109509671D01*
X178785000Y-106960199D01*
X178785000Y-106794126D01*
X178627431Y-106413720D01*
X178336280Y-106122569D01*
X177955874Y-105965000D01*
X177544126Y-105965000D01*
X177163720Y-106122569D01*
X176872569Y-106413720D01*
X176715000Y-106794126D01*
X176715000Y-107205874D01*
X176872569Y-107586280D01*
X177163720Y-107877431D01*
X177544126Y-108035000D01*
X177710199Y-108035000D01*
X179914630Y-110239432D01*
X179852235Y-110251843D01*
X179642191Y-110392191D01*
X179501843Y-110602235D01*
X179496279Y-110630209D01*
X179438327Y-110490301D01*
X179259698Y-110311673D01*
X179026309Y-110215000D01*
X178435750Y-110215000D01*
X178277000Y-110373750D01*
X178277000Y-111373000D01*
X178297000Y-111373000D01*
X178297000Y-111627000D01*
X178277000Y-111627000D01*
X178277000Y-112626250D01*
X178377000Y-112726250D01*
X178377000Y-113623000D01*
X178397000Y-113623000D01*
X178397000Y-113877000D01*
X178377000Y-113877000D01*
X178377000Y-114851250D01*
X178535750Y-115010000D01*
X178575407Y-115010000D01*
X178390302Y-115086673D01*
X178248654Y-115228320D01*
X178207809Y-115167191D01*
X177997765Y-115026843D01*
X177913089Y-115010000D01*
X177964250Y-115010000D01*
X178123000Y-114851250D01*
X178123000Y-113877000D01*
X177023750Y-113877000D01*
X176865000Y-114035750D01*
X176865000Y-114501310D01*
X176961673Y-114734699D01*
X177140302Y-114913327D01*
X177295374Y-114977560D01*
X176250000Y-114977560D01*
X176002235Y-115026843D01*
X175792191Y-115167191D01*
X175651843Y-115377235D01*
X175607947Y-115597918D01*
X175515526Y-115659671D01*
X175515524Y-115659673D01*
X175452071Y-115702071D01*
X175409673Y-115765525D01*
X174735197Y-116440001D01*
X171595000Y-116440001D01*
X171595000Y-116044126D01*
X171437431Y-115663720D01*
X171260000Y-115486289D01*
X171260000Y-115020451D01*
X171497765Y-114973157D01*
X171707809Y-114832809D01*
X171848157Y-114622765D01*
X171897440Y-114375000D01*
X171897440Y-113125000D01*
X171848157Y-112877235D01*
X171711244Y-112672332D01*
X171807809Y-112607809D01*
X171948157Y-112397765D01*
X171997440Y-112150000D01*
X171997440Y-111785750D01*
X176765000Y-111785750D01*
X176765000Y-112276310D01*
X176861673Y-112509699D01*
X177039475Y-112687500D01*
X176961673Y-112765301D01*
X176865000Y-112998690D01*
X176865000Y-113464250D01*
X177023750Y-113623000D01*
X178123000Y-113623000D01*
X178123000Y-112648750D01*
X178023000Y-112548750D01*
X178023000Y-111627000D01*
X176923750Y-111627000D01*
X176765000Y-111785750D01*
X171997440Y-111785750D01*
X171997440Y-110850000D01*
X171972316Y-110723690D01*
X176765000Y-110723690D01*
X176765000Y-111214250D01*
X176923750Y-111373000D01*
X178023000Y-111373000D01*
X178023000Y-110373750D01*
X177864250Y-110215000D01*
X177273691Y-110215000D01*
X177040302Y-110311673D01*
X176861673Y-110490301D01*
X176765000Y-110723690D01*
X171972316Y-110723690D01*
X171948157Y-110602235D01*
X171807809Y-110392191D01*
X171597765Y-110251843D01*
X171350000Y-110202560D01*
X171248483Y-110202560D01*
X171147929Y-110052071D01*
X171084473Y-110009671D01*
X169785000Y-108710199D01*
X169785000Y-108544126D01*
X169627431Y-108163720D01*
X169336280Y-107872569D01*
X168955874Y-107715000D01*
X168544126Y-107715000D01*
X168163720Y-107872569D01*
X167872569Y-108163720D01*
X167715000Y-108544126D01*
X167715000Y-108955874D01*
X167872569Y-109336280D01*
X168163720Y-109627431D01*
X168544126Y-109785000D01*
X168710199Y-109785000D01*
X169362230Y-110437031D01*
X169251843Y-110602235D01*
X169246279Y-110630209D01*
X169188327Y-110490301D01*
X169009698Y-110311673D01*
X168776309Y-110215000D01*
X168185750Y-110215000D01*
X168027000Y-110373750D01*
X168027000Y-111373000D01*
X168047000Y-111373000D01*
X168047000Y-111627000D01*
X168027000Y-111627000D01*
X168027000Y-112626250D01*
X168127000Y-112726250D01*
X168127000Y-113623000D01*
X168147000Y-113623000D01*
X168147000Y-113877000D01*
X168127000Y-113877000D01*
X168127000Y-114851250D01*
X168275750Y-115000000D01*
X168127000Y-115148750D01*
X168127000Y-116123000D01*
X169226250Y-116123000D01*
X169385000Y-115964250D01*
X169385000Y-115498690D01*
X169288327Y-115265301D01*
X169109698Y-115086673D01*
X168900451Y-115000000D01*
X169109698Y-114913327D01*
X169251346Y-114771680D01*
X169292191Y-114832809D01*
X169502235Y-114973157D01*
X169740001Y-115020451D01*
X169740001Y-115606288D01*
X169682569Y-115663720D01*
X169525000Y-116044126D01*
X169525000Y-116440001D01*
X169289251Y-116440001D01*
X169226250Y-116377000D01*
X168127000Y-116377000D01*
X168127000Y-116397000D01*
X167873000Y-116397000D01*
X167873000Y-116377000D01*
X167853000Y-116377000D01*
X167853000Y-116123000D01*
X167873000Y-116123000D01*
X167873000Y-115148750D01*
X167724250Y-115000000D01*
X167873000Y-114851250D01*
X167873000Y-113877000D01*
X166773750Y-113877000D01*
X166615000Y-114035750D01*
X166615000Y-114501310D01*
X166711673Y-114734699D01*
X166890302Y-114913327D01*
X167099549Y-115000000D01*
X166890302Y-115086673D01*
X166748654Y-115228320D01*
X166707809Y-115167191D01*
X166497765Y-115026843D01*
X166250000Y-114977560D01*
X164750000Y-114977560D01*
X164502235Y-115026843D01*
X164292191Y-115167191D01*
X164151843Y-115377235D01*
X164102560Y-115625000D01*
X164102560Y-116440001D01*
X160095000Y-116440001D01*
X160095000Y-116044126D01*
X159937431Y-115663720D01*
X159760000Y-115486289D01*
X159760000Y-115020451D01*
X159997765Y-114973157D01*
X160207809Y-114832809D01*
X160348157Y-114622765D01*
X160397440Y-114375000D01*
X160397440Y-113125000D01*
X160348157Y-112877235D01*
X160211244Y-112672332D01*
X160307809Y-112607809D01*
X160448157Y-112397765D01*
X160497440Y-112150000D01*
X160497440Y-111785750D01*
X166515000Y-111785750D01*
X166515000Y-112276310D01*
X166611673Y-112509699D01*
X166789475Y-112687500D01*
X166711673Y-112765301D01*
X166615000Y-112998690D01*
X166615000Y-113464250D01*
X166773750Y-113623000D01*
X167873000Y-113623000D01*
X167873000Y-112648750D01*
X167773000Y-112548750D01*
X167773000Y-111627000D01*
X166673750Y-111627000D01*
X166515000Y-111785750D01*
X160497440Y-111785750D01*
X160497440Y-110850000D01*
X160472316Y-110723690D01*
X166515000Y-110723690D01*
X166515000Y-111214250D01*
X166673750Y-111373000D01*
X167773000Y-111373000D01*
X167773000Y-110373750D01*
X167614250Y-110215000D01*
X167023691Y-110215000D01*
X166790302Y-110311673D01*
X166611673Y-110490301D01*
X166515000Y-110723690D01*
X160472316Y-110723690D01*
X160448157Y-110602235D01*
X160337770Y-110437031D01*
X162984473Y-107790329D01*
X163047929Y-107747929D01*
X163215904Y-107496537D01*
X163260000Y-107274852D01*
X163260000Y-107274848D01*
X163274888Y-107200001D01*
X163260000Y-107125154D01*
X163260000Y-105453711D01*
X163377431Y-105336280D01*
X163535000Y-104955874D01*
X163535000Y-104544126D01*
X163377431Y-104163720D01*
X163086280Y-103872569D01*
X162705874Y-103715000D01*
X162294126Y-103715000D01*
X161913720Y-103872569D01*
X161622569Y-104163720D01*
X161465000Y-104544126D01*
X161465000Y-104955874D01*
X161622569Y-105336280D01*
X161740001Y-105453712D01*
X161740001Y-105690201D01*
X161607765Y-105601843D01*
X161360000Y-105552560D01*
X161187361Y-105552560D01*
X161025330Y-105390529D01*
X160982928Y-105327070D01*
X160731536Y-105159095D01*
X160509851Y-105114999D01*
X160509846Y-105114999D01*
X160434999Y-105100111D01*
X160360152Y-105114999D01*
X150380532Y-105114999D01*
X150348157Y-104952235D01*
X150213027Y-104750000D01*
X150348157Y-104547765D01*
X150385505Y-104360000D01*
X159385153Y-104360000D01*
X159460000Y-104374888D01*
X159534847Y-104360000D01*
X159534852Y-104360000D01*
X159756537Y-104315904D01*
X160007929Y-104147929D01*
X160050331Y-104084470D01*
X161187362Y-102947440D01*
X161360000Y-102947440D01*
X161607765Y-102898157D01*
X161817809Y-102757809D01*
X161958157Y-102547765D01*
X162007440Y-102300000D01*
X162007440Y-100800000D01*
X161958157Y-100552235D01*
X161817809Y-100342191D01*
X161607765Y-100201843D01*
X161360000Y-100152560D01*
X160760000Y-100152560D01*
X160512235Y-100201843D01*
X160425000Y-100260132D01*
X160337765Y-100201843D01*
X160090000Y-100152560D01*
X159490000Y-100152560D01*
X159242235Y-100201843D01*
X159155000Y-100260132D01*
X159067765Y-100201843D01*
X158820000Y-100152560D01*
X158220000Y-100152560D01*
X157972235Y-100201843D01*
X157885000Y-100260132D01*
X157797765Y-100201843D01*
X157550000Y-100152560D01*
X157292363Y-100152560D01*
X157130332Y-99990529D01*
X157087930Y-99927070D01*
X156836538Y-99759095D01*
X156614853Y-99714999D01*
X156614848Y-99714999D01*
X156540001Y-99700111D01*
X156465154Y-99714999D01*
X138149848Y-99714999D01*
X138075001Y-99700111D01*
X138000154Y-99714999D01*
X138000149Y-99714999D01*
X137778464Y-99759095D01*
X137527072Y-99927070D01*
X137484672Y-99990526D01*
X137338824Y-100136374D01*
X137307542Y-99979109D01*
X137012481Y-99537519D01*
X136570891Y-99242458D01*
X136181485Y-99165000D01*
X135452951Y-99165000D01*
X135635000Y-98725494D01*
X135635000Y-98174506D01*
X135424147Y-97665460D01*
X135115579Y-97356892D01*
X141938514Y-97356892D01*
X142184817Y-97881358D01*
X142613076Y-98271645D01*
X143023110Y-98441476D01*
X143253000Y-98320155D01*
X143253000Y-97127000D01*
X142059181Y-97127000D01*
X141938514Y-97356892D01*
X135115579Y-97356892D01*
X135034540Y-97275853D01*
X134525494Y-97065000D01*
X133974506Y-97065000D01*
X133465460Y-97275853D01*
X133075853Y-97665460D01*
X132865000Y-98174506D01*
X132865000Y-98725494D01*
X133075853Y-99234540D01*
X133465460Y-99624147D01*
X133974506Y-99835000D01*
X134288749Y-99835000D01*
X134192458Y-99979109D01*
X134088846Y-100500000D01*
X134192458Y-101020891D01*
X134487519Y-101462481D01*
X134543670Y-101500000D01*
X134487519Y-101537519D01*
X134399975Y-101668538D01*
X134224397Y-101703463D01*
X134174199Y-101713448D01*
X133975016Y-101846538D01*
X133897999Y-101897999D01*
X133851417Y-101967715D01*
X131217720Y-104601413D01*
X131147999Y-104647999D01*
X130963448Y-104924200D01*
X130915000Y-105167764D01*
X130915000Y-105167767D01*
X130898643Y-105250000D01*
X130735000Y-105250000D01*
X130735000Y-98042702D01*
X130800594Y-97480082D01*
X130979191Y-96988056D01*
X131266192Y-96550308D01*
X131646190Y-96190332D01*
X132098821Y-95927424D01*
X132609416Y-95772780D01*
X133032732Y-95735000D01*
X142605784Y-95735000D01*
X142184817Y-96118642D01*
G36*
X138143750Y-112623000D02*
X138222341Y-112623000D01*
X138372235Y-112723157D01*
X138507185Y-112750000D01*
X138372235Y-112776843D01*
X138222341Y-112877000D01*
X138143750Y-112877000D01*
X137985000Y-113035750D01*
X137985000Y-113201310D01*
X137999936Y-113237369D01*
X137972560Y-113375000D01*
X137972560Y-114025000D01*
X138021843Y-114272765D01*
X138162191Y-114482809D01*
X138372235Y-114623157D01*
X138620000Y-114672440D01*
X140180000Y-114672440D01*
X140427765Y-114623157D01*
X140637809Y-114482809D01*
X140675766Y-114426003D01*
X140726537Y-114415904D01*
X140789414Y-114373891D01*
X140862191Y-114482809D01*
X141072235Y-114623157D01*
X141320000Y-114672440D01*
X141740001Y-114672440D01*
X141740001Y-114979549D01*
X141502235Y-115026843D01*
X141292191Y-115167191D01*
X141151843Y-115377235D01*
X141102560Y-115625000D01*
X141102560Y-116490001D01*
X136713279Y-116490001D01*
X136644224Y-116377000D01*
X135627000Y-116377000D01*
X135627000Y-116397000D01*
X135373000Y-116397000D01*
X135373000Y-116377000D01*
X135353000Y-116377000D01*
X135353000Y-116123000D01*
X135373000Y-116123000D01*
X135373000Y-116103000D01*
X135627000Y-116103000D01*
X135627000Y-116123000D01*
X136644224Y-116123000D01*
X136767910Y-115920600D01*
X136629478Y-115586367D01*
X136341642Y-115263156D01*
X136444457Y-115194457D01*
X136733993Y-114761136D01*
X136835664Y-114250000D01*
X136733993Y-113738864D01*
X136538286Y-113445968D01*
X136632809Y-113382809D01*
X136773157Y-113172765D01*
X136822440Y-112925000D01*
X136822440Y-112560000D01*
X138080750Y-112560000D01*
X138143750Y-112623000D01*
X138143750Y-112623000D01*
G37*
X138143750Y-112623000D02*
X138222341Y-112623000D01*
X138372235Y-112723157D01*
X138507185Y-112750000D01*
X138372235Y-112776843D01*
X138222341Y-112877000D01*
X138143750Y-112877000D01*
X137985000Y-113035750D01*
X137985000Y-113201310D01*
X137999936Y-113237369D01*
X137972560Y-113375000D01*
X137972560Y-114025000D01*
X138021843Y-114272765D01*
X138162191Y-114482809D01*
X138372235Y-114623157D01*
X138620000Y-114672440D01*
X140180000Y-114672440D01*
X140427765Y-114623157D01*
X140637809Y-114482809D01*
X140675766Y-114426003D01*
X140726537Y-114415904D01*
X140789414Y-114373891D01*
X140862191Y-114482809D01*
X141072235Y-114623157D01*
X141320000Y-114672440D01*
X141740001Y-114672440D01*
X141740001Y-114979549D01*
X141502235Y-115026843D01*
X141292191Y-115167191D01*
X141151843Y-115377235D01*
X141102560Y-115625000D01*
X141102560Y-116490001D01*
X136713279Y-116490001D01*
X136644224Y-116377000D01*
X135627000Y-116377000D01*
X135627000Y-116397000D01*
X135373000Y-116397000D01*
X135373000Y-116377000D01*
X135353000Y-116377000D01*
X135353000Y-116123000D01*
X135373000Y-116123000D01*
X135373000Y-116103000D01*
X135627000Y-116103000D01*
X135627000Y-116123000D01*
X136644224Y-116123000D01*
X136767910Y-115920600D01*
X136629478Y-115586367D01*
X136341642Y-115263156D01*
X136444457Y-115194457D01*
X136733993Y-114761136D01*
X136835664Y-114250000D01*
X136733993Y-113738864D01*
X136538286Y-113445968D01*
X136632809Y-113382809D01*
X136773157Y-113172765D01*
X136822440Y-112925000D01*
X136822440Y-112560000D01*
X138080750Y-112560000D01*
X138143750Y-112623000D01*
G36*
X147172152Y-102268045D02*
X147002235Y-102301843D01*
X146792191Y-102442191D01*
X146651843Y-102652235D01*
X146602560Y-102900000D01*
X146602560Y-104300000D01*
X146651843Y-104547765D01*
X146786973Y-104750000D01*
X146651843Y-104952235D01*
X146602560Y-105200000D01*
X146602560Y-106600000D01*
X146651843Y-106847765D01*
X146792191Y-107057809D01*
X147002235Y-107198157D01*
X147250000Y-107247440D01*
X147422638Y-107247440D01*
X147609671Y-107434473D01*
X147652071Y-107497929D01*
X147715527Y-107540329D01*
X147903462Y-107665904D01*
X147951605Y-107675480D01*
X148125148Y-107710000D01*
X148125152Y-107710000D01*
X148200000Y-107724888D01*
X148274848Y-107710000D01*
X152494549Y-107710000D01*
X152541843Y-107947765D01*
X152682191Y-108157809D01*
X152892235Y-108298157D01*
X153140000Y-108347440D01*
X153740000Y-108347440D01*
X153987765Y-108298157D01*
X154075000Y-108239868D01*
X154162235Y-108298157D01*
X154410000Y-108347440D01*
X154582638Y-108347440D01*
X154744672Y-108509474D01*
X154787072Y-108572930D01*
X155038464Y-108740905D01*
X155260149Y-108785001D01*
X155260154Y-108785001D01*
X155335001Y-108799889D01*
X155409848Y-108785001D01*
X159640152Y-108785001D01*
X159714999Y-108799889D01*
X159789846Y-108785001D01*
X159789851Y-108785001D01*
X159852699Y-108772500D01*
X158615528Y-110009671D01*
X158552072Y-110052071D01*
X158451518Y-110202560D01*
X158350000Y-110202560D01*
X158102235Y-110251843D01*
X157892191Y-110392191D01*
X157751843Y-110602235D01*
X157746279Y-110630209D01*
X157688327Y-110490301D01*
X157509698Y-110311673D01*
X157276309Y-110215000D01*
X156685750Y-110215000D01*
X156527000Y-110373750D01*
X156527000Y-111373000D01*
X156547000Y-111373000D01*
X156547000Y-111627000D01*
X156527000Y-111627000D01*
X156527000Y-112626250D01*
X156627000Y-112726250D01*
X156627000Y-113623000D01*
X156647000Y-113623000D01*
X156647000Y-113877000D01*
X156627000Y-113877000D01*
X156627000Y-114851250D01*
X156775750Y-115000000D01*
X156627000Y-115148750D01*
X156627000Y-116123000D01*
X157726250Y-116123000D01*
X157885000Y-115964250D01*
X157885000Y-115498690D01*
X157788327Y-115265301D01*
X157609698Y-115086673D01*
X157400451Y-115000000D01*
X157609698Y-114913327D01*
X157751346Y-114771680D01*
X157792191Y-114832809D01*
X158002235Y-114973157D01*
X158240001Y-115020451D01*
X158240001Y-115606288D01*
X158182569Y-115663720D01*
X158025000Y-116044126D01*
X158025000Y-116440001D01*
X157789251Y-116440001D01*
X157726250Y-116377000D01*
X156627000Y-116377000D01*
X156627000Y-116397000D01*
X156373000Y-116397000D01*
X156373000Y-116377000D01*
X156353000Y-116377000D01*
X156353000Y-116123000D01*
X156373000Y-116123000D01*
X156373000Y-115148750D01*
X156224250Y-115000000D01*
X156373000Y-114851250D01*
X156373000Y-113877000D01*
X155273750Y-113877000D01*
X155115000Y-114035750D01*
X155115000Y-114501310D01*
X155211673Y-114734699D01*
X155390302Y-114913327D01*
X155599549Y-115000000D01*
X155390302Y-115086673D01*
X155248654Y-115228320D01*
X155207809Y-115167191D01*
X154997765Y-115026843D01*
X154750000Y-114977560D01*
X153250000Y-114977560D01*
X153002235Y-115026843D01*
X152792191Y-115167191D01*
X152651843Y-115377235D01*
X152602560Y-115625000D01*
X152602560Y-116440001D01*
X148595000Y-116440001D01*
X148595000Y-116044126D01*
X148437431Y-115663720D01*
X148260000Y-115486289D01*
X148260000Y-115020451D01*
X148497765Y-114973157D01*
X148707809Y-114832809D01*
X148848157Y-114622765D01*
X148897440Y-114375000D01*
X148897440Y-113125000D01*
X148848157Y-112877235D01*
X148711244Y-112672332D01*
X148807809Y-112607809D01*
X148948157Y-112397765D01*
X148997440Y-112150000D01*
X148997440Y-111785750D01*
X155015000Y-111785750D01*
X155015000Y-112276310D01*
X155111673Y-112509699D01*
X155289475Y-112687500D01*
X155211673Y-112765301D01*
X155115000Y-112998690D01*
X155115000Y-113464250D01*
X155273750Y-113623000D01*
X156373000Y-113623000D01*
X156373000Y-112648750D01*
X156273000Y-112548750D01*
X156273000Y-111627000D01*
X155173750Y-111627000D01*
X155015000Y-111785750D01*
X148997440Y-111785750D01*
X148997440Y-110850000D01*
X148972316Y-110723690D01*
X155015000Y-110723690D01*
X155015000Y-111214250D01*
X155173750Y-111373000D01*
X156273000Y-111373000D01*
X156273000Y-110373750D01*
X156114250Y-110215000D01*
X155523691Y-110215000D01*
X155290302Y-110311673D01*
X155111673Y-110490301D01*
X155015000Y-110723690D01*
X148972316Y-110723690D01*
X148948157Y-110602235D01*
X148807809Y-110392191D01*
X148597765Y-110251843D01*
X148350000Y-110202560D01*
X146850000Y-110202560D01*
X146602235Y-110251843D01*
X146392191Y-110392191D01*
X146251843Y-110602235D01*
X146246279Y-110630209D01*
X146188327Y-110490301D01*
X146009698Y-110311673D01*
X145776309Y-110215000D01*
X145185750Y-110215000D01*
X145027000Y-110373750D01*
X145027000Y-111373000D01*
X145047000Y-111373000D01*
X145047000Y-111627000D01*
X145027000Y-111627000D01*
X145027000Y-112626250D01*
X145127000Y-112726250D01*
X145127000Y-113623000D01*
X145147000Y-113623000D01*
X145147000Y-113877000D01*
X145127000Y-113877000D01*
X145127000Y-114851250D01*
X145275750Y-115000000D01*
X145127000Y-115148750D01*
X145127000Y-116123000D01*
X146226250Y-116123000D01*
X146385000Y-115964250D01*
X146385000Y-115498690D01*
X146288327Y-115265301D01*
X146109698Y-115086673D01*
X145900451Y-115000000D01*
X146109698Y-114913327D01*
X146251346Y-114771680D01*
X146292191Y-114832809D01*
X146502235Y-114973157D01*
X146740001Y-115020451D01*
X146740001Y-115606288D01*
X146682569Y-115663720D01*
X146525000Y-116044126D01*
X146525000Y-116440001D01*
X146289251Y-116440001D01*
X146226250Y-116377000D01*
X145127000Y-116377000D01*
X145127000Y-116397000D01*
X144873000Y-116397000D01*
X144873000Y-116377000D01*
X144853000Y-116377000D01*
X144853000Y-116123000D01*
X144873000Y-116123000D01*
X144873000Y-115148750D01*
X144724250Y-115000000D01*
X144873000Y-114851250D01*
X144873000Y-113877000D01*
X143773750Y-113877000D01*
X143615000Y-114035750D01*
X143615000Y-114501310D01*
X143711673Y-114734699D01*
X143890302Y-114913327D01*
X144099549Y-115000000D01*
X143890302Y-115086673D01*
X143748654Y-115228320D01*
X143707809Y-115167191D01*
X143497765Y-115026843D01*
X143260000Y-114979549D01*
X143260000Y-114534800D01*
X143337809Y-114482809D01*
X143478157Y-114272765D01*
X143527440Y-114025000D01*
X143527440Y-113375000D01*
X143478157Y-113127235D01*
X143337809Y-112917191D01*
X143127765Y-112776843D01*
X142992815Y-112750000D01*
X143127765Y-112723157D01*
X143337809Y-112582809D01*
X143478157Y-112372765D01*
X143515000Y-112187541D01*
X143515000Y-112276310D01*
X143611673Y-112509699D01*
X143789475Y-112687500D01*
X143711673Y-112765301D01*
X143615000Y-112998690D01*
X143615000Y-113464250D01*
X143773750Y-113623000D01*
X144873000Y-113623000D01*
X144873000Y-112648750D01*
X144773000Y-112548750D01*
X144773000Y-111627000D01*
X144753000Y-111627000D01*
X144753000Y-111373000D01*
X144773000Y-111373000D01*
X144773000Y-110373750D01*
X144614250Y-110215000D01*
X144023691Y-110215000D01*
X143790302Y-110311673D01*
X143611673Y-110490301D01*
X143515000Y-110723690D01*
X143515000Y-111214250D01*
X143673748Y-111372998D01*
X143515000Y-111372998D01*
X143515000Y-111412459D01*
X143478157Y-111227235D01*
X143337809Y-111017191D01*
X143127765Y-110876843D01*
X142880000Y-110827560D01*
X142456908Y-110827560D01*
X142305874Y-110765000D01*
X141894126Y-110765000D01*
X141754999Y-110822628D01*
X141754999Y-110819802D01*
X142027362Y-110547440D01*
X143100000Y-110547440D01*
X143347765Y-110498157D01*
X143557809Y-110357809D01*
X143698157Y-110147765D01*
X143747440Y-109900000D01*
X143747440Y-108600000D01*
X143698157Y-108352235D01*
X143629845Y-108250000D01*
X143698157Y-108147765D01*
X143747440Y-107900000D01*
X143747440Y-106600000D01*
X143698157Y-106352235D01*
X143557809Y-106142191D01*
X143347765Y-106001843D01*
X143110000Y-105954549D01*
X143110000Y-104464801D01*
X143789802Y-103785000D01*
X143955874Y-103785000D01*
X144336280Y-103627431D01*
X144627431Y-103336280D01*
X144785000Y-102955874D01*
X144785000Y-102544126D01*
X144627431Y-102163720D01*
X144336280Y-101872569D01*
X143955874Y-101715000D01*
X143544126Y-101715000D01*
X143163720Y-101872569D01*
X142872569Y-102163720D01*
X142715000Y-102544126D01*
X142715000Y-102710198D01*
X141865530Y-103559669D01*
X141802071Y-103602071D01*
X141634096Y-103853464D01*
X141590000Y-104075149D01*
X141590000Y-104075153D01*
X141575112Y-104150000D01*
X141590000Y-104224847D01*
X141590001Y-105954549D01*
X141352235Y-106001843D01*
X141142191Y-106142191D01*
X141001843Y-106352235D01*
X141000000Y-106361500D01*
X140998157Y-106352235D01*
X140857809Y-106142191D01*
X140647765Y-106001843D01*
X140410000Y-105954549D01*
X140410000Y-105224847D01*
X140424888Y-105150000D01*
X140410000Y-105075153D01*
X140410000Y-105075148D01*
X140365904Y-104853463D01*
X140197929Y-104602071D01*
X140134473Y-104559671D01*
X137599801Y-102025000D01*
X138389803Y-101234999D01*
X148205196Y-101234999D01*
X147172152Y-102268045D01*
X147172152Y-102268045D01*
G37*
X147172152Y-102268045D02*
X147002235Y-102301843D01*
X146792191Y-102442191D01*
X146651843Y-102652235D01*
X146602560Y-102900000D01*
X146602560Y-104300000D01*
X146651843Y-104547765D01*
X146786973Y-104750000D01*
X146651843Y-104952235D01*
X146602560Y-105200000D01*
X146602560Y-106600000D01*
X146651843Y-106847765D01*
X146792191Y-107057809D01*
X147002235Y-107198157D01*
X147250000Y-107247440D01*
X147422638Y-107247440D01*
X147609671Y-107434473D01*
X147652071Y-107497929D01*
X147715527Y-107540329D01*
X147903462Y-107665904D01*
X147951605Y-107675480D01*
X148125148Y-107710000D01*
X148125152Y-107710000D01*
X148200000Y-107724888D01*
X148274848Y-107710000D01*
X152494549Y-107710000D01*
X152541843Y-107947765D01*
X152682191Y-108157809D01*
X152892235Y-108298157D01*
X153140000Y-108347440D01*
X153740000Y-108347440D01*
X153987765Y-108298157D01*
X154075000Y-108239868D01*
X154162235Y-108298157D01*
X154410000Y-108347440D01*
X154582638Y-108347440D01*
X154744672Y-108509474D01*
X154787072Y-108572930D01*
X155038464Y-108740905D01*
X155260149Y-108785001D01*
X155260154Y-108785001D01*
X155335001Y-108799889D01*
X155409848Y-108785001D01*
X159640152Y-108785001D01*
X159714999Y-108799889D01*
X159789846Y-108785001D01*
X159789851Y-108785001D01*
X159852699Y-108772500D01*
X158615528Y-110009671D01*
X158552072Y-110052071D01*
X158451518Y-110202560D01*
X158350000Y-110202560D01*
X158102235Y-110251843D01*
X157892191Y-110392191D01*
X157751843Y-110602235D01*
X157746279Y-110630209D01*
X157688327Y-110490301D01*
X157509698Y-110311673D01*
X157276309Y-110215000D01*
X156685750Y-110215000D01*
X156527000Y-110373750D01*
X156527000Y-111373000D01*
X156547000Y-111373000D01*
X156547000Y-111627000D01*
X156527000Y-111627000D01*
X156527000Y-112626250D01*
X156627000Y-112726250D01*
X156627000Y-113623000D01*
X156647000Y-113623000D01*
X156647000Y-113877000D01*
X156627000Y-113877000D01*
X156627000Y-114851250D01*
X156775750Y-115000000D01*
X156627000Y-115148750D01*
X156627000Y-116123000D01*
X157726250Y-116123000D01*
X157885000Y-115964250D01*
X157885000Y-115498690D01*
X157788327Y-115265301D01*
X157609698Y-115086673D01*
X157400451Y-115000000D01*
X157609698Y-114913327D01*
X157751346Y-114771680D01*
X157792191Y-114832809D01*
X158002235Y-114973157D01*
X158240001Y-115020451D01*
X158240001Y-115606288D01*
X158182569Y-115663720D01*
X158025000Y-116044126D01*
X158025000Y-116440001D01*
X157789251Y-116440001D01*
X157726250Y-116377000D01*
X156627000Y-116377000D01*
X156627000Y-116397000D01*
X156373000Y-116397000D01*
X156373000Y-116377000D01*
X156353000Y-116377000D01*
X156353000Y-116123000D01*
X156373000Y-116123000D01*
X156373000Y-115148750D01*
X156224250Y-115000000D01*
X156373000Y-114851250D01*
X156373000Y-113877000D01*
X155273750Y-113877000D01*
X155115000Y-114035750D01*
X155115000Y-114501310D01*
X155211673Y-114734699D01*
X155390302Y-114913327D01*
X155599549Y-115000000D01*
X155390302Y-115086673D01*
X155248654Y-115228320D01*
X155207809Y-115167191D01*
X154997765Y-115026843D01*
X154750000Y-114977560D01*
X153250000Y-114977560D01*
X153002235Y-115026843D01*
X152792191Y-115167191D01*
X152651843Y-115377235D01*
X152602560Y-115625000D01*
X152602560Y-116440001D01*
X148595000Y-116440001D01*
X148595000Y-116044126D01*
X148437431Y-115663720D01*
X148260000Y-115486289D01*
X148260000Y-115020451D01*
X148497765Y-114973157D01*
X148707809Y-114832809D01*
X148848157Y-114622765D01*
X148897440Y-114375000D01*
X148897440Y-113125000D01*
X148848157Y-112877235D01*
X148711244Y-112672332D01*
X148807809Y-112607809D01*
X148948157Y-112397765D01*
X148997440Y-112150000D01*
X148997440Y-111785750D01*
X155015000Y-111785750D01*
X155015000Y-112276310D01*
X155111673Y-112509699D01*
X155289475Y-112687500D01*
X155211673Y-112765301D01*
X155115000Y-112998690D01*
X155115000Y-113464250D01*
X155273750Y-113623000D01*
X156373000Y-113623000D01*
X156373000Y-112648750D01*
X156273000Y-112548750D01*
X156273000Y-111627000D01*
X155173750Y-111627000D01*
X155015000Y-111785750D01*
X148997440Y-111785750D01*
X148997440Y-110850000D01*
X148972316Y-110723690D01*
X155015000Y-110723690D01*
X155015000Y-111214250D01*
X155173750Y-111373000D01*
X156273000Y-111373000D01*
X156273000Y-110373750D01*
X156114250Y-110215000D01*
X155523691Y-110215000D01*
X155290302Y-110311673D01*
X155111673Y-110490301D01*
X155015000Y-110723690D01*
X148972316Y-110723690D01*
X148948157Y-110602235D01*
X148807809Y-110392191D01*
X148597765Y-110251843D01*
X148350000Y-110202560D01*
X146850000Y-110202560D01*
X146602235Y-110251843D01*
X146392191Y-110392191D01*
X146251843Y-110602235D01*
X146246279Y-110630209D01*
X146188327Y-110490301D01*
X146009698Y-110311673D01*
X145776309Y-110215000D01*
X145185750Y-110215000D01*
X145027000Y-110373750D01*
X145027000Y-111373000D01*
X145047000Y-111373000D01*
X145047000Y-111627000D01*
X145027000Y-111627000D01*
X145027000Y-112626250D01*
X145127000Y-112726250D01*
X145127000Y-113623000D01*
X145147000Y-113623000D01*
X145147000Y-113877000D01*
X145127000Y-113877000D01*
X145127000Y-114851250D01*
X145275750Y-115000000D01*
X145127000Y-115148750D01*
X145127000Y-116123000D01*
X146226250Y-116123000D01*
X146385000Y-115964250D01*
X146385000Y-115498690D01*
X146288327Y-115265301D01*
X146109698Y-115086673D01*
X145900451Y-115000000D01*
X146109698Y-114913327D01*
X146251346Y-114771680D01*
X146292191Y-114832809D01*
X146502235Y-114973157D01*
X146740001Y-115020451D01*
X146740001Y-115606288D01*
X146682569Y-115663720D01*
X146525000Y-116044126D01*
X146525000Y-116440001D01*
X146289251Y-116440001D01*
X146226250Y-116377000D01*
X145127000Y-116377000D01*
X145127000Y-116397000D01*
X144873000Y-116397000D01*
X144873000Y-116377000D01*
X144853000Y-116377000D01*
X144853000Y-116123000D01*
X144873000Y-116123000D01*
X144873000Y-115148750D01*
X144724250Y-115000000D01*
X144873000Y-114851250D01*
X144873000Y-113877000D01*
X143773750Y-113877000D01*
X143615000Y-114035750D01*
X143615000Y-114501310D01*
X143711673Y-114734699D01*
X143890302Y-114913327D01*
X144099549Y-115000000D01*
X143890302Y-115086673D01*
X143748654Y-115228320D01*
X143707809Y-115167191D01*
X143497765Y-115026843D01*
X143260000Y-114979549D01*
X143260000Y-114534800D01*
X143337809Y-114482809D01*
X143478157Y-114272765D01*
X143527440Y-114025000D01*
X143527440Y-113375000D01*
X143478157Y-113127235D01*
X143337809Y-112917191D01*
X143127765Y-112776843D01*
X142992815Y-112750000D01*
X143127765Y-112723157D01*
X143337809Y-112582809D01*
X143478157Y-112372765D01*
X143515000Y-112187541D01*
X143515000Y-112276310D01*
X143611673Y-112509699D01*
X143789475Y-112687500D01*
X143711673Y-112765301D01*
X143615000Y-112998690D01*
X143615000Y-113464250D01*
X143773750Y-113623000D01*
X144873000Y-113623000D01*
X144873000Y-112648750D01*
X144773000Y-112548750D01*
X144773000Y-111627000D01*
X144753000Y-111627000D01*
X144753000Y-111373000D01*
X144773000Y-111373000D01*
X144773000Y-110373750D01*
X144614250Y-110215000D01*
X144023691Y-110215000D01*
X143790302Y-110311673D01*
X143611673Y-110490301D01*
X143515000Y-110723690D01*
X143515000Y-111214250D01*
X143673748Y-111372998D01*
X143515000Y-111372998D01*
X143515000Y-111412459D01*
X143478157Y-111227235D01*
X143337809Y-111017191D01*
X143127765Y-110876843D01*
X142880000Y-110827560D01*
X142456908Y-110827560D01*
X142305874Y-110765000D01*
X141894126Y-110765000D01*
X141754999Y-110822628D01*
X141754999Y-110819802D01*
X142027362Y-110547440D01*
X143100000Y-110547440D01*
X143347765Y-110498157D01*
X143557809Y-110357809D01*
X143698157Y-110147765D01*
X143747440Y-109900000D01*
X143747440Y-108600000D01*
X143698157Y-108352235D01*
X143629845Y-108250000D01*
X143698157Y-108147765D01*
X143747440Y-107900000D01*
X143747440Y-106600000D01*
X143698157Y-106352235D01*
X143557809Y-106142191D01*
X143347765Y-106001843D01*
X143110000Y-105954549D01*
X143110000Y-104464801D01*
X143789802Y-103785000D01*
X143955874Y-103785000D01*
X144336280Y-103627431D01*
X144627431Y-103336280D01*
X144785000Y-102955874D01*
X144785000Y-102544126D01*
X144627431Y-102163720D01*
X144336280Y-101872569D01*
X143955874Y-101715000D01*
X143544126Y-101715000D01*
X143163720Y-101872569D01*
X142872569Y-102163720D01*
X142715000Y-102544126D01*
X142715000Y-102710198D01*
X141865530Y-103559669D01*
X141802071Y-103602071D01*
X141634096Y-103853464D01*
X141590000Y-104075149D01*
X141590000Y-104075153D01*
X141575112Y-104150000D01*
X141590000Y-104224847D01*
X141590001Y-105954549D01*
X141352235Y-106001843D01*
X141142191Y-106142191D01*
X141001843Y-106352235D01*
X141000000Y-106361500D01*
X140998157Y-106352235D01*
X140857809Y-106142191D01*
X140647765Y-106001843D01*
X140410000Y-105954549D01*
X140410000Y-105224847D01*
X140424888Y-105150000D01*
X140410000Y-105075153D01*
X140410000Y-105075148D01*
X140365904Y-104853463D01*
X140197929Y-104602071D01*
X140134473Y-104559671D01*
X137599801Y-102025000D01*
X138389803Y-101234999D01*
X148205196Y-101234999D01*
X147172152Y-102268045D01*
G36*
X138890000Y-105464802D02*
X138890001Y-105954549D01*
X138652235Y-106001843D01*
X138442191Y-106142191D01*
X138301843Y-106352235D01*
X138252560Y-106600000D01*
X138252560Y-107900000D01*
X138301843Y-108147765D01*
X138362873Y-108239101D01*
X138361673Y-108240301D01*
X138265000Y-108473690D01*
X138265000Y-108964250D01*
X138423750Y-109123000D01*
X139523000Y-109123000D01*
X139523000Y-109103000D01*
X139777000Y-109103000D01*
X139777000Y-109123000D01*
X139797000Y-109123000D01*
X139797000Y-109377000D01*
X139777000Y-109377000D01*
X139777000Y-110376250D01*
X139935750Y-110535000D01*
X140226078Y-110535000D01*
X140235000Y-110579853D01*
X140235000Y-110838500D01*
X140180000Y-110827560D01*
X138620000Y-110827560D01*
X138372235Y-110876843D01*
X138162191Y-111017191D01*
X138146950Y-111040000D01*
X136517285Y-111040000D01*
X136422765Y-110976843D01*
X136175000Y-110927560D01*
X134825000Y-110927560D01*
X134577235Y-110976843D01*
X134367191Y-111117191D01*
X134304032Y-111211714D01*
X134011136Y-111016007D01*
X133629022Y-110940000D01*
X133370978Y-110940000D01*
X132988864Y-111016007D01*
X132585000Y-111285860D01*
X132585000Y-109535750D01*
X138265000Y-109535750D01*
X138265000Y-110026310D01*
X138361673Y-110259699D01*
X138540302Y-110438327D01*
X138773691Y-110535000D01*
X139364250Y-110535000D01*
X139523000Y-110376250D01*
X139523000Y-109377000D01*
X138423750Y-109377000D01*
X138265000Y-109535750D01*
X132585000Y-109535750D01*
X132585000Y-106500000D01*
X134088846Y-106500000D01*
X134192458Y-107020891D01*
X134487519Y-107462481D01*
X134929109Y-107757542D01*
X135318515Y-107835000D01*
X136181485Y-107835000D01*
X136570891Y-107757542D01*
X137012481Y-107462481D01*
X137307542Y-107020891D01*
X137411154Y-106500000D01*
X137307542Y-105979109D01*
X137012481Y-105537519D01*
X136928069Y-105481117D01*
X137083790Y-105354185D01*
X137331980Y-104893550D01*
X137342716Y-104833329D01*
X137219374Y-104627000D01*
X135877000Y-104627000D01*
X135877000Y-104647000D01*
X135623000Y-104647000D01*
X135623000Y-104627000D01*
X134280626Y-104627000D01*
X134157284Y-104833329D01*
X134168020Y-104893550D01*
X134416210Y-105354185D01*
X134571931Y-105481117D01*
X134487519Y-105537519D01*
X134192458Y-105979109D01*
X134088846Y-106500000D01*
X132585000Y-106500000D01*
X132585000Y-105595867D01*
X134277371Y-103903498D01*
X134168020Y-104106450D01*
X134157284Y-104166671D01*
X134280626Y-104373000D01*
X135623000Y-104373000D01*
X135623000Y-104353000D01*
X135877000Y-104353000D01*
X135877000Y-104373000D01*
X137219374Y-104373000D01*
X137342716Y-104166671D01*
X137331980Y-104106450D01*
X137098716Y-103673517D01*
X138890000Y-105464802D01*
X138890000Y-105464802D01*
G37*
X138890000Y-105464802D02*
X138890001Y-105954549D01*
X138652235Y-106001843D01*
X138442191Y-106142191D01*
X138301843Y-106352235D01*
X138252560Y-106600000D01*
X138252560Y-107900000D01*
X138301843Y-108147765D01*
X138362873Y-108239101D01*
X138361673Y-108240301D01*
X138265000Y-108473690D01*
X138265000Y-108964250D01*
X138423750Y-109123000D01*
X139523000Y-109123000D01*
X139523000Y-109103000D01*
X139777000Y-109103000D01*
X139777000Y-109123000D01*
X139797000Y-109123000D01*
X139797000Y-109377000D01*
X139777000Y-109377000D01*
X139777000Y-110376250D01*
X139935750Y-110535000D01*
X140226078Y-110535000D01*
X140235000Y-110579853D01*
X140235000Y-110838500D01*
X140180000Y-110827560D01*
X138620000Y-110827560D01*
X138372235Y-110876843D01*
X138162191Y-111017191D01*
X138146950Y-111040000D01*
X136517285Y-111040000D01*
X136422765Y-110976843D01*
X136175000Y-110927560D01*
X134825000Y-110927560D01*
X134577235Y-110976843D01*
X134367191Y-111117191D01*
X134304032Y-111211714D01*
X134011136Y-111016007D01*
X133629022Y-110940000D01*
X133370978Y-110940000D01*
X132988864Y-111016007D01*
X132585000Y-111285860D01*
X132585000Y-109535750D01*
X138265000Y-109535750D01*
X138265000Y-110026310D01*
X138361673Y-110259699D01*
X138540302Y-110438327D01*
X138773691Y-110535000D01*
X139364250Y-110535000D01*
X139523000Y-110376250D01*
X139523000Y-109377000D01*
X138423750Y-109377000D01*
X138265000Y-109535750D01*
X132585000Y-109535750D01*
X132585000Y-106500000D01*
X134088846Y-106500000D01*
X134192458Y-107020891D01*
X134487519Y-107462481D01*
X134929109Y-107757542D01*
X135318515Y-107835000D01*
X136181485Y-107835000D01*
X136570891Y-107757542D01*
X137012481Y-107462481D01*
X137307542Y-107020891D01*
X137411154Y-106500000D01*
X137307542Y-105979109D01*
X137012481Y-105537519D01*
X136928069Y-105481117D01*
X137083790Y-105354185D01*
X137331980Y-104893550D01*
X137342716Y-104833329D01*
X137219374Y-104627000D01*
X135877000Y-104627000D01*
X135877000Y-104647000D01*
X135623000Y-104647000D01*
X135623000Y-104627000D01*
X134280626Y-104627000D01*
X134157284Y-104833329D01*
X134168020Y-104893550D01*
X134416210Y-105354185D01*
X134571931Y-105481117D01*
X134487519Y-105537519D01*
X134192458Y-105979109D01*
X134088846Y-106500000D01*
X132585000Y-106500000D01*
X132585000Y-105595867D01*
X134277371Y-103903498D01*
X134168020Y-104106450D01*
X134157284Y-104166671D01*
X134280626Y-104373000D01*
X135623000Y-104373000D01*
X135623000Y-104353000D01*
X135877000Y-104353000D01*
X135877000Y-104373000D01*
X137219374Y-104373000D01*
X137342716Y-104166671D01*
X137331980Y-104106450D01*
X137098716Y-103673517D01*
X138890000Y-105464802D01*
G36*
X157377000Y-106823000D02*
X157397000Y-106823000D01*
X157397000Y-107077000D01*
X157377000Y-107077000D01*
X157377000Y-107097000D01*
X157123000Y-107097000D01*
X157123000Y-107077000D01*
X157103000Y-107077000D01*
X157103000Y-106823000D01*
X157123000Y-106823000D01*
X157123000Y-106803000D01*
X157377000Y-106803000D01*
X157377000Y-106823000D01*
X157377000Y-106823000D01*
G37*
X157377000Y-106823000D02*
X157397000Y-106823000D01*
X157397000Y-107077000D01*
X157377000Y-107077000D01*
X157377000Y-107097000D01*
X157123000Y-107097000D01*
X157123000Y-107077000D01*
X157103000Y-107077000D01*
X157103000Y-106823000D01*
X157123000Y-106823000D01*
X157123000Y-106803000D01*
X157377000Y-106803000D01*
X157377000Y-106823000D01*
G04 #@! TD*
M02*
