M48
;DRILL file {KiCad (5.0.0)} date 12/02/20 22:33:01
;FORMAT={3:3/ absolute / metric / suppress leading zeros}
FMAT,2
METRIC,TZ
T1C0.400
T2C0.800
T3C1.000
T4C1.100
%
G90
G05
M71
T1
X141000Y-104500
X141250Y-102250
X142100Y-111800
X142500Y-116250
X143750Y-102750
X145000Y-116250
X147560Y-116250
X147600Y-111500
X148500Y-103600
X154000Y-116250
X154004Y-102839
X154710Y-106950
X155980Y-101675
X155980Y-106950
X156400Y-111500
X156500Y-116250
X157250Y-106950
X158520Y-101675
X158520Y-106950
X159060Y-116250
X162500Y-104750
X165500Y-116250
X168000Y-116250
X168750Y-108750
X170560Y-116250
X177000Y-116250
X177750Y-107000
X179500Y-116250
X182060Y-116250
T2
X133500Y-112250
X133500Y-114250
X133500Y-116250
X135500Y-112250
X135500Y-114250
X135500Y-116250
T3
X143380Y-97000
X145920Y-97000
X148460Y-97000
X151000Y-97000
X135750Y-100500
X135750Y-102500
X135750Y-104500
X135750Y-106500
T4
X134250Y-98450
T0
M30
