G04 #@! TF.GenerationSoftware,KiCad,Pcbnew,(5.0.0)*
G04 #@! TF.CreationDate,2020-12-02T22:32:57+00:00*
G04 #@! TF.ProjectId,CBR015-0056_QUAD_MAP-CMP_SENSOR_PCB,4342523031352D303035365F51554144,00*
G04 #@! TF.SameCoordinates,Original*
G04 #@! TF.FileFunction,Legend,Bot*
G04 #@! TF.FilePolarity,Positive*
%FSLAX46Y46*%
G04 Gerber Fmt 4.6, Leading zero omitted, Abs format (unit mm)*
G04 Created by KiCad (PCBNEW (5.0.0)) date 12/02/20 22:32:57*
%MOMM*%
%LPD*%
G01*
G04 APERTURE LIST*
%ADD10C,0.125000*%
%ADD11C,0.250000*%
%ADD12C,0.120000*%
%ADD13C,0.150000*%
G04 APERTURE END LIST*
D10*
X151630952Y-95726190D02*
X151630952Y-95226190D01*
X151464285Y-95583333D01*
X151297619Y-95226190D01*
X151297619Y-95726190D01*
X151083333Y-95583333D02*
X150845238Y-95583333D01*
X151130952Y-95726190D02*
X150964285Y-95226190D01*
X150797619Y-95726190D01*
X150630952Y-95726190D02*
X150630952Y-95226190D01*
X150440476Y-95226190D01*
X150392857Y-95250000D01*
X150369047Y-95273809D01*
X150345238Y-95321428D01*
X150345238Y-95392857D01*
X150369047Y-95440476D01*
X150392857Y-95464285D01*
X150440476Y-95488095D01*
X150630952Y-95488095D01*
X148880952Y-95678571D02*
X148904761Y-95702380D01*
X148976190Y-95726190D01*
X149023809Y-95726190D01*
X149095238Y-95702380D01*
X149142857Y-95654761D01*
X149166666Y-95607142D01*
X149190476Y-95511904D01*
X149190476Y-95440476D01*
X149166666Y-95345238D01*
X149142857Y-95297619D01*
X149095238Y-95250000D01*
X149023809Y-95226190D01*
X148976190Y-95226190D01*
X148904761Y-95250000D01*
X148880952Y-95273809D01*
X148666666Y-95726190D02*
X148666666Y-95226190D01*
X148500000Y-95583333D01*
X148333333Y-95226190D01*
X148333333Y-95726190D01*
X148095238Y-95726190D02*
X148095238Y-95226190D01*
X147904761Y-95226190D01*
X147857142Y-95250000D01*
X147833333Y-95273809D01*
X147809523Y-95321428D01*
X147809523Y-95392857D01*
X147833333Y-95440476D01*
X147857142Y-95464285D01*
X147904761Y-95488095D01*
X148095238Y-95488095D01*
X146285714Y-95726190D02*
X146452380Y-95488095D01*
X146571428Y-95726190D02*
X146571428Y-95226190D01*
X146380952Y-95226190D01*
X146333333Y-95250000D01*
X146309523Y-95273809D01*
X146285714Y-95321428D01*
X146285714Y-95392857D01*
X146309523Y-95440476D01*
X146333333Y-95464285D01*
X146380952Y-95488095D01*
X146571428Y-95488095D01*
X146071428Y-95464285D02*
X145904761Y-95464285D01*
X145833333Y-95726190D02*
X146071428Y-95726190D01*
X146071428Y-95226190D01*
X145833333Y-95226190D01*
X145452380Y-95464285D02*
X145619047Y-95464285D01*
X145619047Y-95726190D02*
X145619047Y-95226190D01*
X145380952Y-95226190D01*
X143880952Y-95250000D02*
X143928571Y-95226190D01*
X144000000Y-95226190D01*
X144071428Y-95250000D01*
X144119047Y-95297619D01*
X144142857Y-95345238D01*
X144166666Y-95440476D01*
X144166666Y-95511904D01*
X144142857Y-95607142D01*
X144119047Y-95654761D01*
X144071428Y-95702380D01*
X144000000Y-95726190D01*
X143952380Y-95726190D01*
X143880952Y-95702380D01*
X143857142Y-95678571D01*
X143857142Y-95511904D01*
X143952380Y-95511904D01*
X143642857Y-95726190D02*
X143642857Y-95226190D01*
X143357142Y-95726190D01*
X143357142Y-95226190D01*
X143119047Y-95726190D02*
X143119047Y-95226190D01*
X143000000Y-95226190D01*
X142928571Y-95250000D01*
X142880952Y-95297619D01*
X142857142Y-95345238D01*
X142833333Y-95440476D01*
X142833333Y-95511904D01*
X142857142Y-95607142D01*
X142880952Y-95654761D01*
X142928571Y-95702380D01*
X143000000Y-95726190D01*
X143119047Y-95726190D01*
D11*
X177321428Y-104903571D02*
X177378571Y-104960714D01*
X177550000Y-105017857D01*
X177664285Y-105017857D01*
X177835714Y-104960714D01*
X177950000Y-104846428D01*
X178007142Y-104732142D01*
X178064285Y-104503571D01*
X178064285Y-104332142D01*
X178007142Y-104103571D01*
X177950000Y-103989285D01*
X177835714Y-103875000D01*
X177664285Y-103817857D01*
X177550000Y-103817857D01*
X177378571Y-103875000D01*
X177321428Y-103932142D01*
X176407142Y-104389285D02*
X176235714Y-104446428D01*
X176178571Y-104503571D01*
X176121428Y-104617857D01*
X176121428Y-104789285D01*
X176178571Y-104903571D01*
X176235714Y-104960714D01*
X176350000Y-105017857D01*
X176807142Y-105017857D01*
X176807142Y-103817857D01*
X176407142Y-103817857D01*
X176292857Y-103875000D01*
X176235714Y-103932142D01*
X176178571Y-104046428D01*
X176178571Y-104160714D01*
X176235714Y-104275000D01*
X176292857Y-104332142D01*
X176407142Y-104389285D01*
X176807142Y-104389285D01*
X174921428Y-105017857D02*
X175321428Y-104446428D01*
X175607142Y-105017857D02*
X175607142Y-103817857D01*
X175150000Y-103817857D01*
X175035714Y-103875000D01*
X174978571Y-103932142D01*
X174921428Y-104046428D01*
X174921428Y-104217857D01*
X174978571Y-104332142D01*
X175035714Y-104389285D01*
X175150000Y-104446428D01*
X175607142Y-104446428D01*
X174178571Y-103817857D02*
X174064285Y-103817857D01*
X173950000Y-103875000D01*
X173892857Y-103932142D01*
X173835714Y-104046428D01*
X173778571Y-104275000D01*
X173778571Y-104560714D01*
X173835714Y-104789285D01*
X173892857Y-104903571D01*
X173950000Y-104960714D01*
X174064285Y-105017857D01*
X174178571Y-105017857D01*
X174292857Y-104960714D01*
X174350000Y-104903571D01*
X174407142Y-104789285D01*
X174464285Y-104560714D01*
X174464285Y-104275000D01*
X174407142Y-104046428D01*
X174350000Y-103932142D01*
X174292857Y-103875000D01*
X174178571Y-103817857D01*
X172635714Y-105017857D02*
X173321428Y-105017857D01*
X172978571Y-105017857D02*
X172978571Y-103817857D01*
X173092857Y-103989285D01*
X173207142Y-104103571D01*
X173321428Y-104160714D01*
X171550000Y-103817857D02*
X172121428Y-103817857D01*
X172178571Y-104389285D01*
X172121428Y-104332142D01*
X172007142Y-104275000D01*
X171721428Y-104275000D01*
X171607142Y-104332142D01*
X171550000Y-104389285D01*
X171492857Y-104503571D01*
X171492857Y-104789285D01*
X171550000Y-104903571D01*
X171607142Y-104960714D01*
X171721428Y-105017857D01*
X172007142Y-105017857D01*
X172121428Y-104960714D01*
X172178571Y-104903571D01*
X170978571Y-104560714D02*
X170064285Y-104560714D01*
X169264285Y-103817857D02*
X169150000Y-103817857D01*
X169035714Y-103875000D01*
X168978571Y-103932142D01*
X168921428Y-104046428D01*
X168864285Y-104275000D01*
X168864285Y-104560714D01*
X168921428Y-104789285D01*
X168978571Y-104903571D01*
X169035714Y-104960714D01*
X169150000Y-105017857D01*
X169264285Y-105017857D01*
X169378571Y-104960714D01*
X169435714Y-104903571D01*
X169492857Y-104789285D01*
X169550000Y-104560714D01*
X169550000Y-104275000D01*
X169492857Y-104046428D01*
X169435714Y-103932142D01*
X169378571Y-103875000D01*
X169264285Y-103817857D01*
X168121428Y-103817857D02*
X168007142Y-103817857D01*
X167892857Y-103875000D01*
X167835714Y-103932142D01*
X167778571Y-104046428D01*
X167721428Y-104275000D01*
X167721428Y-104560714D01*
X167778571Y-104789285D01*
X167835714Y-104903571D01*
X167892857Y-104960714D01*
X168007142Y-105017857D01*
X168121428Y-105017857D01*
X168235714Y-104960714D01*
X168292857Y-104903571D01*
X168350000Y-104789285D01*
X168407142Y-104560714D01*
X168407142Y-104275000D01*
X168350000Y-104046428D01*
X168292857Y-103932142D01*
X168235714Y-103875000D01*
X168121428Y-103817857D01*
X166635714Y-103817857D02*
X167207142Y-103817857D01*
X167264285Y-104389285D01*
X167207142Y-104332142D01*
X167092857Y-104275000D01*
X166807142Y-104275000D01*
X166692857Y-104332142D01*
X166635714Y-104389285D01*
X166578571Y-104503571D01*
X166578571Y-104789285D01*
X166635714Y-104903571D01*
X166692857Y-104960714D01*
X166807142Y-105017857D01*
X167092857Y-105017857D01*
X167207142Y-104960714D01*
X167264285Y-104903571D01*
X165550000Y-103817857D02*
X165778571Y-103817857D01*
X165892857Y-103875000D01*
X165950000Y-103932142D01*
X166064285Y-104103571D01*
X166121428Y-104332142D01*
X166121428Y-104789285D01*
X166064285Y-104903571D01*
X166007142Y-104960714D01*
X165892857Y-105017857D01*
X165664285Y-105017857D01*
X165550000Y-104960714D01*
X165492857Y-104903571D01*
X165435714Y-104789285D01*
X165435714Y-104503571D01*
X165492857Y-104389285D01*
X165550000Y-104332142D01*
X165664285Y-104275000D01*
X165892857Y-104275000D01*
X166007142Y-104332142D01*
X166064285Y-104389285D01*
X166121428Y-104503571D01*
X172521428Y-107067857D02*
X172921428Y-106496428D01*
X173207142Y-107067857D02*
X173207142Y-105867857D01*
X172750000Y-105867857D01*
X172635714Y-105925000D01*
X172578571Y-105982142D01*
X172521428Y-106096428D01*
X172521428Y-106267857D01*
X172578571Y-106382142D01*
X172635714Y-106439285D01*
X172750000Y-106496428D01*
X173207142Y-106496428D01*
X171778571Y-105867857D02*
X171664285Y-105867857D01*
X171550000Y-105925000D01*
X171492857Y-105982142D01*
X171435714Y-106096428D01*
X171378571Y-106325000D01*
X171378571Y-106610714D01*
X171435714Y-106839285D01*
X171492857Y-106953571D01*
X171550000Y-107010714D01*
X171664285Y-107067857D01*
X171778571Y-107067857D01*
X171892857Y-107010714D01*
X171950000Y-106953571D01*
X172007142Y-106839285D01*
X172064285Y-106610714D01*
X172064285Y-106325000D01*
X172007142Y-106096428D01*
X171950000Y-105982142D01*
X171892857Y-105925000D01*
X171778571Y-105867857D01*
X170635714Y-105867857D02*
X170521428Y-105867857D01*
X170407142Y-105925000D01*
X170350000Y-105982142D01*
X170292857Y-106096428D01*
X170235714Y-106325000D01*
X170235714Y-106610714D01*
X170292857Y-106839285D01*
X170350000Y-106953571D01*
X170407142Y-107010714D01*
X170521428Y-107067857D01*
X170635714Y-107067857D01*
X170750000Y-107010714D01*
X170807142Y-106953571D01*
X170864285Y-106839285D01*
X170921428Y-106610714D01*
X170921428Y-106325000D01*
X170864285Y-106096428D01*
X170807142Y-105982142D01*
X170750000Y-105925000D01*
X170635714Y-105867857D01*
D12*
G04 #@! TO.C,C1*
X143250000Y-115400000D02*
X144250000Y-115400000D01*
X144250000Y-117100000D02*
X143250000Y-117100000D01*
G04 #@! TO.C,C2*
X146750000Y-114600000D02*
X145750000Y-114600000D01*
X145750000Y-112900000D02*
X146750000Y-112900000D01*
G04 #@! TO.C,R2*
X145650000Y-112380000D02*
X146850000Y-112380000D01*
X146850000Y-110620000D02*
X145650000Y-110620000D01*
G04 #@! TO.C,U1*
X141650000Y-114360000D02*
X139200000Y-114360000D01*
X139850000Y-111140000D02*
X141650000Y-111140000D01*
D13*
G04 #@! TO.C,J1*
X138750000Y-110000000D02*
X138750000Y-97000000D01*
X138750000Y-97000000D02*
X131250000Y-97000000D01*
X131250000Y-97000000D02*
X131250000Y-110000000D01*
X131250000Y-110000000D02*
X138750000Y-110000000D01*
D12*
G04 #@! TO.C,C3*
X155750000Y-117100000D02*
X154750000Y-117100000D01*
X154750000Y-115400000D02*
X155750000Y-115400000D01*
G04 #@! TO.C,C4*
X157250000Y-112900000D02*
X158250000Y-112900000D01*
X158250000Y-114600000D02*
X157250000Y-114600000D01*
G04 #@! TO.C,C5*
X166250000Y-115400000D02*
X167250000Y-115400000D01*
X167250000Y-117100000D02*
X166250000Y-117100000D01*
G04 #@! TO.C,C6*
X169750000Y-114600000D02*
X168750000Y-114600000D01*
X168750000Y-112900000D02*
X169750000Y-112900000D01*
G04 #@! TO.C,C7*
X177750000Y-115400000D02*
X178750000Y-115400000D01*
X178750000Y-117100000D02*
X177750000Y-117100000D01*
G04 #@! TO.C,C8*
X180000000Y-114600000D02*
X179000000Y-114600000D01*
X179000000Y-112900000D02*
X180000000Y-112900000D01*
G04 #@! TO.C,R3*
X158350000Y-110620000D02*
X157150000Y-110620000D01*
X157150000Y-112380000D02*
X158350000Y-112380000D01*
G04 #@! TO.C,R4*
X168650000Y-112380000D02*
X169850000Y-112380000D01*
X169850000Y-110620000D02*
X168650000Y-110620000D01*
G04 #@! TO.C,R5*
X180100000Y-110620000D02*
X178900000Y-110620000D01*
X178900000Y-112380000D02*
X180100000Y-112380000D01*
D13*
G04 #@! TO.C,U6*
X152825000Y-102175000D02*
X152825000Y-100800000D01*
X161700000Y-102175000D02*
X161700000Y-106325000D01*
X152800000Y-102175000D02*
X152800000Y-106325000D01*
X161700000Y-102175000D02*
X161585000Y-102175000D01*
X161700000Y-106325000D02*
X161585000Y-106325000D01*
X152800000Y-106325000D02*
X152915000Y-106325000D01*
X152800000Y-102175000D02*
X152825000Y-102175000D01*
G04 #@! TO.C,D1*
X147550000Y-102400000D02*
X146750000Y-103200000D01*
X146750000Y-103200000D02*
X146750000Y-107100000D01*
X146750000Y-107100000D02*
X150250000Y-107100000D01*
X150250000Y-107100000D02*
X150250000Y-102400000D01*
X150250000Y-102400000D02*
X147550000Y-102400000D01*
D12*
G04 #@! TO.C,R7*
X141600000Y-106370000D02*
X140400000Y-106370000D01*
X140400000Y-108130000D02*
X141600000Y-108130000D01*
G04 #@! TO.C,R8*
X141600000Y-108370000D02*
X140400000Y-108370000D01*
X140400000Y-110130000D02*
X141600000Y-110130000D01*
G04 #@! TO.C,C1*
D13*
X147166666Y-116607142D02*
X147214285Y-116654761D01*
X147357142Y-116702380D01*
X147452380Y-116702380D01*
X147595238Y-116654761D01*
X147690476Y-116559523D01*
X147738095Y-116464285D01*
X147785714Y-116273809D01*
X147785714Y-116130952D01*
X147738095Y-115940476D01*
X147690476Y-115845238D01*
X147595238Y-115750000D01*
X147452380Y-115702380D01*
X147357142Y-115702380D01*
X147214285Y-115750000D01*
X147166666Y-115797619D01*
X146214285Y-116702380D02*
X146785714Y-116702380D01*
X146500000Y-116702380D02*
X146500000Y-115702380D01*
X146595238Y-115845238D01*
X146690476Y-115940476D01*
X146785714Y-115988095D01*
G04 #@! TO.C,C2*
X149666666Y-114107142D02*
X149714285Y-114154761D01*
X149857142Y-114202380D01*
X149952380Y-114202380D01*
X150095238Y-114154761D01*
X150190476Y-114059523D01*
X150238095Y-113964285D01*
X150285714Y-113773809D01*
X150285714Y-113630952D01*
X150238095Y-113440476D01*
X150190476Y-113345238D01*
X150095238Y-113250000D01*
X149952380Y-113202380D01*
X149857142Y-113202380D01*
X149714285Y-113250000D01*
X149666666Y-113297619D01*
X149285714Y-113297619D02*
X149238095Y-113250000D01*
X149142857Y-113202380D01*
X148904761Y-113202380D01*
X148809523Y-113250000D01*
X148761904Y-113297619D01*
X148714285Y-113392857D01*
X148714285Y-113488095D01*
X148761904Y-113630952D01*
X149333333Y-114202380D01*
X148714285Y-114202380D01*
G04 #@! TO.C,R2*
X149666666Y-111952380D02*
X150000000Y-111476190D01*
X150238095Y-111952380D02*
X150238095Y-110952380D01*
X149857142Y-110952380D01*
X149761904Y-111000000D01*
X149714285Y-111047619D01*
X149666666Y-111142857D01*
X149666666Y-111285714D01*
X149714285Y-111380952D01*
X149761904Y-111428571D01*
X149857142Y-111476190D01*
X150238095Y-111476190D01*
X149285714Y-111047619D02*
X149238095Y-111000000D01*
X149142857Y-110952380D01*
X148904761Y-110952380D01*
X148809523Y-111000000D01*
X148761904Y-111047619D01*
X148714285Y-111142857D01*
X148714285Y-111238095D01*
X148761904Y-111380952D01*
X149333333Y-111952380D01*
X148714285Y-111952380D01*
G04 #@! TO.C,U1*
X141511904Y-115102380D02*
X141511904Y-115911904D01*
X141464285Y-116007142D01*
X141416666Y-116054761D01*
X141321428Y-116102380D01*
X141130952Y-116102380D01*
X141035714Y-116054761D01*
X140988095Y-116007142D01*
X140940476Y-115911904D01*
X140940476Y-115102380D01*
X139940476Y-116102380D02*
X140511904Y-116102380D01*
X140226190Y-116102380D02*
X140226190Y-115102380D01*
X140321428Y-115245238D01*
X140416666Y-115340476D01*
X140511904Y-115388095D01*
G04 #@! TO.C,J1*
X132702380Y-103166666D02*
X133416666Y-103166666D01*
X133559523Y-103119047D01*
X133654761Y-103023809D01*
X133702380Y-102880952D01*
X133702380Y-102785714D01*
X133702380Y-104166666D02*
X133702380Y-103595238D01*
X133702380Y-103880952D02*
X132702380Y-103880952D01*
X132845238Y-103785714D01*
X132940476Y-103690476D01*
X132988095Y-103595238D01*
G04 #@! TO.C,C3*
X158666666Y-116607142D02*
X158714285Y-116654761D01*
X158857142Y-116702380D01*
X158952380Y-116702380D01*
X159095238Y-116654761D01*
X159190476Y-116559523D01*
X159238095Y-116464285D01*
X159285714Y-116273809D01*
X159285714Y-116130952D01*
X159238095Y-115940476D01*
X159190476Y-115845238D01*
X159095238Y-115750000D01*
X158952380Y-115702380D01*
X158857142Y-115702380D01*
X158714285Y-115750000D01*
X158666666Y-115797619D01*
X158333333Y-115702380D02*
X157714285Y-115702380D01*
X158047619Y-116083333D01*
X157904761Y-116083333D01*
X157809523Y-116130952D01*
X157761904Y-116178571D01*
X157714285Y-116273809D01*
X157714285Y-116511904D01*
X157761904Y-116607142D01*
X157809523Y-116654761D01*
X157904761Y-116702380D01*
X158190476Y-116702380D01*
X158285714Y-116654761D01*
X158333333Y-116607142D01*
G04 #@! TO.C,C4*
X161166666Y-114107142D02*
X161214285Y-114154761D01*
X161357142Y-114202380D01*
X161452380Y-114202380D01*
X161595238Y-114154761D01*
X161690476Y-114059523D01*
X161738095Y-113964285D01*
X161785714Y-113773809D01*
X161785714Y-113630952D01*
X161738095Y-113440476D01*
X161690476Y-113345238D01*
X161595238Y-113250000D01*
X161452380Y-113202380D01*
X161357142Y-113202380D01*
X161214285Y-113250000D01*
X161166666Y-113297619D01*
X160309523Y-113535714D02*
X160309523Y-114202380D01*
X160547619Y-113154761D02*
X160785714Y-113869047D01*
X160166666Y-113869047D01*
G04 #@! TO.C,C5*
X170166666Y-116607142D02*
X170214285Y-116654761D01*
X170357142Y-116702380D01*
X170452380Y-116702380D01*
X170595238Y-116654761D01*
X170690476Y-116559523D01*
X170738095Y-116464285D01*
X170785714Y-116273809D01*
X170785714Y-116130952D01*
X170738095Y-115940476D01*
X170690476Y-115845238D01*
X170595238Y-115750000D01*
X170452380Y-115702380D01*
X170357142Y-115702380D01*
X170214285Y-115750000D01*
X170166666Y-115797619D01*
X169261904Y-115702380D02*
X169738095Y-115702380D01*
X169785714Y-116178571D01*
X169738095Y-116130952D01*
X169642857Y-116083333D01*
X169404761Y-116083333D01*
X169309523Y-116130952D01*
X169261904Y-116178571D01*
X169214285Y-116273809D01*
X169214285Y-116511904D01*
X169261904Y-116607142D01*
X169309523Y-116654761D01*
X169404761Y-116702380D01*
X169642857Y-116702380D01*
X169738095Y-116654761D01*
X169785714Y-116607142D01*
G04 #@! TO.C,C6*
X172641665Y-114137141D02*
X172689284Y-114184760D01*
X172832141Y-114232379D01*
X172927379Y-114232379D01*
X173070237Y-114184760D01*
X173165475Y-114089522D01*
X173213094Y-113994284D01*
X173260713Y-113803808D01*
X173260713Y-113660951D01*
X173213094Y-113470475D01*
X173165475Y-113375237D01*
X173070237Y-113279999D01*
X172927379Y-113232379D01*
X172832141Y-113232379D01*
X172689284Y-113279999D01*
X172641665Y-113327618D01*
X171784522Y-113232379D02*
X171974999Y-113232379D01*
X172070237Y-113279999D01*
X172117856Y-113327618D01*
X172213094Y-113470475D01*
X172260713Y-113660951D01*
X172260713Y-114041903D01*
X172213094Y-114137141D01*
X172165475Y-114184760D01*
X172070237Y-114232379D01*
X171879760Y-114232379D01*
X171784522Y-114184760D01*
X171736903Y-114137141D01*
X171689284Y-114041903D01*
X171689284Y-113803808D01*
X171736903Y-113708570D01*
X171784522Y-113660951D01*
X171879760Y-113613332D01*
X172070237Y-113613332D01*
X172165475Y-113660951D01*
X172213094Y-113708570D01*
X172260713Y-113803808D01*
G04 #@! TO.C,C7*
X181916666Y-116607142D02*
X181964285Y-116654761D01*
X182107142Y-116702380D01*
X182202380Y-116702380D01*
X182345238Y-116654761D01*
X182440476Y-116559523D01*
X182488095Y-116464285D01*
X182535714Y-116273809D01*
X182535714Y-116130952D01*
X182488095Y-115940476D01*
X182440476Y-115845238D01*
X182345238Y-115750000D01*
X182202380Y-115702380D01*
X182107142Y-115702380D01*
X181964285Y-115750000D01*
X181916666Y-115797619D01*
X181583333Y-115702380D02*
X180916666Y-115702380D01*
X181345238Y-116702380D01*
G04 #@! TO.C,C8*
X182916666Y-114107142D02*
X182964285Y-114154761D01*
X183107142Y-114202380D01*
X183202380Y-114202380D01*
X183345238Y-114154761D01*
X183440476Y-114059523D01*
X183488095Y-113964285D01*
X183535714Y-113773809D01*
X183535714Y-113630952D01*
X183488095Y-113440476D01*
X183440476Y-113345238D01*
X183345238Y-113250000D01*
X183202380Y-113202380D01*
X183107142Y-113202380D01*
X182964285Y-113250000D01*
X182916666Y-113297619D01*
X182345238Y-113630952D02*
X182440476Y-113583333D01*
X182488095Y-113535714D01*
X182535714Y-113440476D01*
X182535714Y-113392857D01*
X182488095Y-113297619D01*
X182440476Y-113250000D01*
X182345238Y-113202380D01*
X182154761Y-113202380D01*
X182059523Y-113250000D01*
X182011904Y-113297619D01*
X181964285Y-113392857D01*
X181964285Y-113440476D01*
X182011904Y-113535714D01*
X182059523Y-113583333D01*
X182154761Y-113630952D01*
X182345238Y-113630952D01*
X182440476Y-113678571D01*
X182488095Y-113726190D01*
X182535714Y-113821428D01*
X182535714Y-114011904D01*
X182488095Y-114107142D01*
X182440476Y-114154761D01*
X182345238Y-114202380D01*
X182154761Y-114202380D01*
X182059523Y-114154761D01*
X182011904Y-114107142D01*
X181964285Y-114011904D01*
X181964285Y-113821428D01*
X182011904Y-113726190D01*
X182059523Y-113678571D01*
X182154761Y-113630952D01*
G04 #@! TO.C,R3*
X161166666Y-111952380D02*
X161500000Y-111476190D01*
X161738095Y-111952380D02*
X161738095Y-110952380D01*
X161357142Y-110952380D01*
X161261904Y-111000000D01*
X161214285Y-111047619D01*
X161166666Y-111142857D01*
X161166666Y-111285714D01*
X161214285Y-111380952D01*
X161261904Y-111428571D01*
X161357142Y-111476190D01*
X161738095Y-111476190D01*
X160833333Y-110952380D02*
X160214285Y-110952380D01*
X160547619Y-111333333D01*
X160404761Y-111333333D01*
X160309523Y-111380952D01*
X160261904Y-111428571D01*
X160214285Y-111523809D01*
X160214285Y-111761904D01*
X160261904Y-111857142D01*
X160309523Y-111904761D01*
X160404761Y-111952380D01*
X160690476Y-111952380D01*
X160785714Y-111904761D01*
X160833333Y-111857142D01*
G04 #@! TO.C,R4*
X172666666Y-111952380D02*
X173000000Y-111476190D01*
X173238095Y-111952380D02*
X173238095Y-110952380D01*
X172857142Y-110952380D01*
X172761904Y-111000000D01*
X172714285Y-111047619D01*
X172666666Y-111142857D01*
X172666666Y-111285714D01*
X172714285Y-111380952D01*
X172761904Y-111428571D01*
X172857142Y-111476190D01*
X173238095Y-111476190D01*
X171809523Y-111285714D02*
X171809523Y-111952380D01*
X172047619Y-110904761D02*
X172285714Y-111619047D01*
X171666666Y-111619047D01*
G04 #@! TO.C,R5*
X182916666Y-111952380D02*
X183250000Y-111476190D01*
X183488095Y-111952380D02*
X183488095Y-110952380D01*
X183107142Y-110952380D01*
X183011904Y-111000000D01*
X182964285Y-111047619D01*
X182916666Y-111142857D01*
X182916666Y-111285714D01*
X182964285Y-111380952D01*
X183011904Y-111428571D01*
X183107142Y-111476190D01*
X183488095Y-111476190D01*
X182011904Y-110952380D02*
X182488095Y-110952380D01*
X182535714Y-111428571D01*
X182488095Y-111380952D01*
X182392857Y-111333333D01*
X182154761Y-111333333D01*
X182059523Y-111380952D01*
X182011904Y-111428571D01*
X181964285Y-111523809D01*
X181964285Y-111761904D01*
X182011904Y-111857142D01*
X182059523Y-111904761D01*
X182154761Y-111952380D01*
X182392857Y-111952380D01*
X182488095Y-111904761D01*
X182535714Y-111857142D01*
G04 #@! TO.C,U6*
X151327380Y-103488095D02*
X152136904Y-103488095D01*
X152232142Y-103535714D01*
X152279761Y-103583333D01*
X152327380Y-103678571D01*
X152327380Y-103869047D01*
X152279761Y-103964285D01*
X152232142Y-104011904D01*
X152136904Y-104059523D01*
X151327380Y-104059523D01*
X151327380Y-104964285D02*
X151327380Y-104773809D01*
X151375000Y-104678571D01*
X151422619Y-104630952D01*
X151565476Y-104535714D01*
X151755952Y-104488095D01*
X152136904Y-104488095D01*
X152232142Y-104535714D01*
X152279761Y-104583333D01*
X152327380Y-104678571D01*
X152327380Y-104869047D01*
X152279761Y-104964285D01*
X152232142Y-105011904D01*
X152136904Y-105059523D01*
X151898809Y-105059523D01*
X151803571Y-105011904D01*
X151755952Y-104964285D01*
X151708333Y-104869047D01*
X151708333Y-104678571D01*
X151755952Y-104583333D01*
X151803571Y-104535714D01*
X151898809Y-104488095D01*
G04 #@! TO.C,D1*
X145297619Y-105488095D02*
X146297619Y-105488095D01*
X146297619Y-105250000D01*
X146250000Y-105107142D01*
X146154761Y-105011904D01*
X146059523Y-104964285D01*
X145869047Y-104916666D01*
X145726190Y-104916666D01*
X145535714Y-104964285D01*
X145440476Y-105011904D01*
X145345238Y-105107142D01*
X145297619Y-105250000D01*
X145297619Y-105488095D01*
X145297619Y-103964285D02*
X145297619Y-104535714D01*
X145297619Y-104250000D02*
X146297619Y-104250000D01*
X146154761Y-104345238D01*
X146059523Y-104440476D01*
X146011904Y-104535714D01*
G04 #@! TO.C,R7*
X144666666Y-107702380D02*
X145000000Y-107226190D01*
X145238095Y-107702380D02*
X145238095Y-106702380D01*
X144857142Y-106702380D01*
X144761904Y-106750000D01*
X144714285Y-106797619D01*
X144666666Y-106892857D01*
X144666666Y-107035714D01*
X144714285Y-107130952D01*
X144761904Y-107178571D01*
X144857142Y-107226190D01*
X145238095Y-107226190D01*
X144333333Y-106702380D02*
X143666666Y-106702380D01*
X144095238Y-107702380D01*
G04 #@! TO.C,R8*
X144666666Y-109702380D02*
X145000000Y-109226190D01*
X145238095Y-109702380D02*
X145238095Y-108702380D01*
X144857142Y-108702380D01*
X144761904Y-108750000D01*
X144714285Y-108797619D01*
X144666666Y-108892857D01*
X144666666Y-109035714D01*
X144714285Y-109130952D01*
X144761904Y-109178571D01*
X144857142Y-109226190D01*
X145238095Y-109226190D01*
X144095238Y-109130952D02*
X144190476Y-109083333D01*
X144238095Y-109035714D01*
X144285714Y-108940476D01*
X144285714Y-108892857D01*
X144238095Y-108797619D01*
X144190476Y-108750000D01*
X144095238Y-108702380D01*
X143904761Y-108702380D01*
X143809523Y-108750000D01*
X143761904Y-108797619D01*
X143714285Y-108892857D01*
X143714285Y-108940476D01*
X143761904Y-109035714D01*
X143809523Y-109083333D01*
X143904761Y-109130952D01*
X144095238Y-109130952D01*
X144190476Y-109178571D01*
X144238095Y-109226190D01*
X144285714Y-109321428D01*
X144285714Y-109511904D01*
X144238095Y-109607142D01*
X144190476Y-109654761D01*
X144095238Y-109702380D01*
X143904761Y-109702380D01*
X143809523Y-109654761D01*
X143761904Y-109607142D01*
X143714285Y-109511904D01*
X143714285Y-109321428D01*
X143761904Y-109226190D01*
X143809523Y-109178571D01*
X143904761Y-109130952D01*
G04 #@! TD*
M02*
