G04 #@! TF.GenerationSoftware,KiCad,Pcbnew,(5.0.0)*
G04 #@! TF.CreationDate,2020-12-02T22:32:57+00:00*
G04 #@! TF.ProjectId,CBR015-0056_QUAD_MAP-CMP_SENSOR_PCB,4342523031352D303035365F51554144,00*
G04 #@! TF.SameCoordinates,Original*
G04 #@! TF.FileFunction,Soldermask,Bot*
G04 #@! TF.FilePolarity,Negative*
%FSLAX46Y46*%
G04 Gerber Fmt 4.6, Leading zero omitted, Abs format (unit mm)*
G04 Created by KiCad (PCBNEW (5.0.0)) date 12/02/20 22:32:57*
%MOMM*%
%LPD*%
G01*
G04 APERTURE LIST*
%ADD10R,1.900000X1.650000*%
%ADD11R,1.900000X1.700000*%
%ADD12R,1.960000X1.050000*%
%ADD13O,2.100000X2.100000*%
%ADD14R,2.100000X2.100000*%
%ADD15O,2.400000X1.800000*%
%ADD16C,1.900000*%
%ADD17O,1.750000X1.750000*%
%ADD18R,1.750000X1.750000*%
%ADD19R,1.000000X1.900000*%
%ADD20R,1.000000X1.800000*%
G04 APERTURE END LIST*
D10*
G04 #@! TO.C,C1*
X145000000Y-116250000D03*
X142500000Y-116250000D03*
G04 #@! TD*
G04 #@! TO.C,C2*
X145000000Y-113750000D03*
X147500000Y-113750000D03*
G04 #@! TD*
D11*
G04 #@! TO.C,R2*
X147600000Y-111500000D03*
X144900000Y-111500000D03*
G04 #@! TD*
D12*
G04 #@! TO.C,U1*
X142100000Y-113700000D03*
X142100000Y-111800000D03*
X139400000Y-111800000D03*
X139400000Y-112750000D03*
X139400000Y-113700000D03*
G04 #@! TD*
D13*
G04 #@! TO.C,J2*
X143380000Y-97000000D03*
X145920000Y-97000000D03*
X148460000Y-97000000D03*
D14*
X151000000Y-97000000D03*
G04 #@! TD*
D15*
G04 #@! TO.C,J1*
X135750000Y-106500000D03*
X135750000Y-104500000D03*
X135750000Y-102500000D03*
X135750000Y-100500000D03*
D16*
X134250000Y-98450000D03*
G04 #@! TD*
D10*
G04 #@! TO.C,C3*
X154000000Y-116250000D03*
X156500000Y-116250000D03*
G04 #@! TD*
G04 #@! TO.C,C4*
X159000000Y-113750000D03*
X156500000Y-113750000D03*
G04 #@! TD*
G04 #@! TO.C,C5*
X168000000Y-116250000D03*
X165500000Y-116250000D03*
G04 #@! TD*
G04 #@! TO.C,C6*
X168000000Y-113750000D03*
X170500000Y-113750000D03*
G04 #@! TD*
G04 #@! TO.C,C7*
X179500000Y-116250000D03*
X177000000Y-116250000D03*
G04 #@! TD*
G04 #@! TO.C,C8*
X178250000Y-113750000D03*
X180750000Y-113750000D03*
G04 #@! TD*
D17*
G04 #@! TO.C,J3*
X133500000Y-116250000D03*
X135500000Y-116250000D03*
X133500000Y-114250000D03*
X135500000Y-114250000D03*
X133500000Y-112250000D03*
D18*
X135500000Y-112250000D03*
G04 #@! TD*
D11*
G04 #@! TO.C,R3*
X156400000Y-111500000D03*
X159100000Y-111500000D03*
G04 #@! TD*
G04 #@! TO.C,R4*
X170600000Y-111500000D03*
X167900000Y-111500000D03*
G04 #@! TD*
G04 #@! TO.C,R5*
X178150000Y-111500000D03*
X180850000Y-111500000D03*
G04 #@! TD*
D19*
G04 #@! TO.C,U6*
X153440000Y-106950000D03*
X154710000Y-106950000D03*
X155980000Y-106950000D03*
X157250000Y-106950000D03*
X158520000Y-106950000D03*
X159790000Y-106950000D03*
X161060000Y-106950000D03*
X161060000Y-101550000D03*
X159790000Y-101550000D03*
X158520000Y-101550000D03*
X157250000Y-101550000D03*
X155980000Y-101550000D03*
X154710000Y-101550000D03*
X153440000Y-101550000D03*
G04 #@! TD*
D20*
G04 #@! TO.C,D1*
X147550000Y-105900000D03*
X147550000Y-103600000D03*
X148500000Y-103600000D03*
X149450000Y-105900000D03*
X149450000Y-103600000D03*
G04 #@! TD*
D11*
G04 #@! TO.C,R7*
X139650000Y-107250000D03*
X142350000Y-107250000D03*
G04 #@! TD*
G04 #@! TO.C,R8*
X139650000Y-109250000D03*
X142350000Y-109250000D03*
G04 #@! TD*
M02*
